<svg xmlns="http://www.w3.org/2000/svg" xmlns:xlink="http://www.w3.org/1999/xlink" version="1.1" x="0px" y="0px" viewBox="0 0 100 125" enable-background="new 0 0 100 100" xml:space="preserve">
<path d="M50,5C25.147,5,5,25.147,5,50c0,24.854,20.147,45,45,45c24.854,0,45-20.146,45-45C95,25.147,74.854,5,50,5z M78.344,65.648  c-0.127,0.191-0.343,0.31-0.574,0.313l-4.483,0.073l-51.041,0.062c0,0,0,0-0.001,0c-0.248,0-0.477-0.132-0.604-0.345  s-0.133-0.478-0.014-0.694l9.582-17.651c0.123-0.228,0.354-0.358,0.622-0.368c0.26,0.002,0.497,0.146,0.618,0.375l6.788,12.896  l7.051-21.804c0.091-0.28,0.347-0.475,0.643-0.485c0.303-0.017,0.564,0.162,0.678,0.435l6.154,14.994l9.438-23.122  c0.107-0.265,0.365-0.438,0.65-0.438h0.002c0.287,0,0.545,0.175,0.65,0.441L78.41,64.998C78.497,65.212,78.473,65.456,78.344,65.648  z"/>
</svg>
