<svg xmlns="http://www.w3.org/2000/svg" xmlns:xlink="http://www.w3.org/1999/xlink" version="1.1" x="0px" y="0px" viewBox="0 0 100 125" enable-background="new 0 0 100 100" xml:space="preserve"><g><rect x="38.223" y="38.457" width="7.748" height="23.09"/><polygon points="63.637,50.231 63.639,50.218 63.639,38.457 48.432,38.457 48.432,61.547 63.639,61.547 63.639,50.246  "/><path d="M50,5C25.147,5,5,25.147,5,50c0,24.854,20.147,45,45,45c24.854,0,45-20.146,45-45C95,25.147,74.854,5,50,5z M80.033,58.903   c0,0.681-0.551,1.229-1.23,1.229c-0.679,0-1.229-0.55-1.229-1.229v-7.44H66.1v11.313c0,0.682-0.551,1.23-1.23,1.23H36.993   c-0.679,0-1.229-0.55-1.229-1.23V51.463H22.428v7.44c0,0.681-0.551,1.229-1.23,1.229c-0.679,0-1.23-0.55-1.23-1.229V42.024   c0-0.68,0.551-1.229,1.23-1.229c0.68,0,1.23,0.552,1.23,1.229v6.977h13.333V37.228c0-0.681,0.551-1.23,1.23-1.23h27.875   c0.681,0,1.23,0.551,1.23,1.23v11.773H77.57v-6.977c0-0.68,0.552-1.229,1.23-1.229c0.68,0,1.23,0.552,1.23,1.229v16.879H80.033z"/></g></svg>
