<svg xmlns="http://www.w3.org/2000/svg" xmlns:xlink="http://www.w3.org/1999/xlink" version="1.1" x="0px" y="0px" viewBox="0 0 100 125" enable-background="new 0 0 100 100" xml:space="preserve"><g><path d="M50,5C25.147,5,5,25.147,5,50c0,24.854,20.147,45,45,45c24.854,0,45-20.146,45-45C95,25.147,74.854,5,50,5z M79.673,40.351   c-1.429-0.002-1.44,1.363-1.575,2.992c0.144,0.139,0.893,0.451,0.946,0.156c0.213,0.587-0.521,1.581-1.421,1.578   c-0.545,0.658-1.098,1.312-2.203,1.414c0.471,1.863-0.827,2.354-0.316,4.252c-1.699,0.695-0.148,2.744,0.316,3.621   c-0.429,1.354-2.311,1.256-2.361,2.99c-0.445,0.021-0.822,0.102-1.256,0.474c-0.236,1.185-0.883,1.959-1.893,2.36   c-0.122,0.996-0.612,1.812-0.473,2.834c0.188,1.371,1.539,2.131,1.73,3.619c0.777,0.974,1.439,2.114,1.104,3.779   c-0.282-0.018-0.334,0.193-0.631,0.156c-1.615-1.243-3.435-2.491-3.306-5.036c-0.847-0.308-0.987-1.321-2.046-1.418   c-0.602,0.084-0.671,0.692-1.262,0.788c-1.129-1.977-3.346-0.07-5.195-0.475c-0.242,0.446-0.328,1.139-0.159,1.575   c-1.983,0.781-2.032-0.211-3.934-0.157c-2.519-1.465-4.07,1.551-6.144,2.045c-0.676,1.004-0.664,2.076-0.156,3.309   c-1.271-0.066-1.383-0.584-2.676-0.789c-0.225-0.98-0.304-2.111-1.263-2.359c-0.25-1.643-0.989-2.787-2.676-2.99   c-0.562,0.223-0.769,0.807-1.103,1.259c-1.604-0.229-1.684-1.487-1.89-2.205c-0.28-0.978-1.46-1.116-1.892-2.361   c-0.537,0.233-1.25-0.047-1.889-0.157c-0.509-0.14-0.326,0.407-0.632,0.473c-3.832,0.367-5.111-1.817-7.714-2.682   c0.065-0.326-0.108-0.412-0.159-0.629c-1.25-0.099-1.819,0.062-2.833-0.312c0.013-2.22-1.649-2.81-3.307-3.781   c-0.03-3.032-1.911-5.424-1.418-8.501c-1.341-1.171,1.252-2.376,0.159-3.621c1.139-2.828,2.752-4.352,2.519-8.659   c0.74,0.047,0.925,0.647,1.89,0.473c0.194-0.509-0.509-0.123-0.314-0.63c0.335,0.073,0.301-0.225,0.314-0.474   c2.072,0.257,4.594,1.73,6.613,1.418c0.244,0.084,0.013,0.165-0.156,0.159c5.26,1.35,12.963,2.426,20.939,1.891   c0.067,0.84,1.128,1.121,1.89,0.787c0.874,0.705,1.867,0.603,3.305,0.785c-0.676,0.53-1.586,0.828-1.887,1.737   c0.424,0.562,0.61-0.429,1.102-0.321c0.644-0.046-0.025,0.223,0.158,0.631c0.91-0.02,1.584-0.974,2.518-1.416   c-0.385,0.715,0.502,0.916,0.788,1.416c1.524-0.49,2.218-0.727,3.307-0.156c-0.114,1.627,1.937,1.422,1.104,3.306   c0.132,0.462,0.393-0.205,0.783,0c0.896,1.169,0.141,2.024-0.314,3.31c1.891,0.735,4.535-0.884,4.88-3.15   c1.124,0.002,1.772-0.016,2.521-0.631c-0.291-3.035,2.358-2.627,4.408-3.463c1.161-1.041,0.319-4.763,2.836-3.936   c0.108,1.307,0.623,2.208,1.573,2.673C80.756,39.231,79.727,39.302,79.673,40.351z"/><circle cx="30.934" cy="44.481" r="6.907"/><circle cx="50.652" cy="44.415" r="3.538"/><circle cx="56.342" cy="54.305" r="1.805"/><path d="M44.541,50.449c-3.191,0-5.786,2.594-5.786,5.788c0,3.195,2.591,5.789,5.786,5.789c3.197,0,5.79-2.592,5.79-5.789   C50.331,53.043,47.738,50.45,44.541,50.449z"/><path d="M66.977,49.063c-2.482,0-4.5,2.015-4.5,4.5c0,2.487,2.018,4.504,4.5,4.504c2.487,0,4.504-2.017,4.504-4.504   C71.48,51.078,69.465,49.063,66.977,49.063z"/></g></svg>
