<svg xmlns="http://www.w3.org/2000/svg" xmlns:xlink="http://www.w3.org/1999/xlink" version="1.1" x="0px" y="0px" viewBox="0 0 100 125" enable-background="new 0 0 100 100" xml:space="preserve"><path d="M50,5C25.147,5,5,25.147,5,50c0,24.854,20.147,45,45,45c24.854,0,45-20.146,45-45C95,25.147,74.854,5,50,5z M68.839,30.85  c1.519,0,2.751,1.231,2.751,2.75s-1.232,2.751-2.751,2.751s-2.751-1.232-2.751-2.751S67.32,30.85,68.839,30.85z M67.419,52.146  c2.043,0,3.698,1.655,3.698,3.697s-1.655,3.698-3.698,3.698c-2.042,0-3.696-1.656-3.696-3.698S65.377,52.146,67.419,52.146z   M53.258,37.635c4.133,0,7.484,3.352,7.484,7.484s-3.352,7.484-7.484,7.484c-4.134,0-7.484-3.352-7.484-7.484  S49.124,37.635,53.258,37.635z M37.641,54.198c2.303,0,4.17,1.866,4.17,4.171c0,2.304-1.867,4.171-4.17,4.171  c-2.304,0-4.172-1.867-4.172-4.171C33.469,56.064,35.336,54.198,37.641,54.198z M76.266,72.041H24.248V27.449  c0-0.583,0.472-1.055,1.055-1.055s1.055,0.472,1.055,1.055v42.482h49.908c0.582,0,1.055,0.473,1.055,1.055  C77.318,71.568,76.848,72.041,76.266,72.041z"/></svg>
