<svg xmlns="http://www.w3.org/2000/svg" xmlns:xlink="http://www.w3.org/1999/xlink" version="1.1" x="0px" y="0px" viewBox="0 0 100 125" enable-background="new 0 0 100 100" xml:space="preserve">
<path d="M92,30.9H8c-0.9,0-1.7,0.7-1.7,1.7V41c0,0.9,0.7,1.7,1.7,1.7h84c0.9,0,1.7-0.7,1.7-1.7v-8.5C93.7,31.6,92.9,30.9,92,30.9z   M91.7,40.7H8.3v-7.8h83.3V40.7z M12.4,49.2c0,0.6-0.5,1.1-1.1,1.1s-1.1-0.5-1.1-1.1s0.5-1.1,1.1-1.1S12.4,48.6,12.4,49.2z   M13.7,50.4V48c0-0.4,0.3-0.7,0.7-0.7h64.7c0.4,0,0.7,0.3,0.7,0.7v2.5c0,0.4-0.3,0.7-0.7,0.7H14.4C14,51.1,13.7,50.8,13.7,50.4z   M11.3,58.8c-0.6,0-1.1-0.5-1.1-1.1s0.5-1.1,1.1-1.1s1.1,0.5,1.1,1.1S11.9,58.8,11.3,58.8z M87.3,56.5V59c0,0.4-0.3,0.7-0.7,0.7  H14.2c-0.4,0-0.7-0.3-0.7-0.7v-2.5c0-0.4,0.3-0.7,0.7-0.7h72.4C87,55.8,87.3,56.1,87.3,56.5z M12.4,66.3c0,0.6-0.5,1.1-1.1,1.1  s-1.1-0.5-1.1-1.1c0-0.6,0.5-1.1,1.1-1.1S12.4,65.6,12.4,66.3z M64.3,65v2.5c0,0.4-0.3,0.7-0.7,0.7H14.4c-0.4,0-0.7-0.3-0.7-0.7V65  c0-0.4,0.3-0.7,0.7-0.7h49.2C64,64.4,64.3,64.7,64.3,65z"/>
</svg>
