<svg xmlns="http://www.w3.org/2000/svg" xmlns:xlink="http://www.w3.org/1999/xlink" version="1.1" x="0px" y="0px" viewBox="0 0 100 125" enable-background="new 0 0 100 100" xml:space="preserve"><path d="M68.6,5H32.1H5v24h27.1h36.5H95V5H68.6z M29,8v4H9V8H29z M9,26v-4h20v4H9z M33,26v-4h18V12H33V8h32v18H33z M92,26H69V8h23  V26z"/><path d="M32.1,38H5v24h27.1h36.5H95V38H68.6H32.1z M9,59v-4h16V45H9v-4h20v18H9z M33,59V41h32v18H33z M92,41v18H69V41H92z"/><path d="M32.1,71H5v24h27.1h36.5H95V71H68.6H32.1z M65,74v4H33v-4H65z M29,74v4H9v-4H29z M9,92v-4h20v4H9z M33,92v-4h32v4H33z   M92,74v18H69v-4h10V78H69v-4H92z"/></svg>
