<svg xmlns="http://www.w3.org/2000/svg" xmlns:xlink="http://www.w3.org/1999/xlink" version="1.1" x="0px" y="0px" viewBox="0 0 100 125" enable-background="new 0 0 100 100" xml:space="preserve">
<path d="M50,5C25.147,5,5,25.147,5,50c0,24.854,20.147,45,45,45c24.854,0,45-20.146,45-45C95,25.147,74.854,5,50,5z M27.599,64.509  h-2.042v4.184h-1.055v-4.184H22.46V38.194h2.042v-8.89h1.055v8.89h2.042V64.509z M37.707,54.399h-2.042v9.85H34.61v-9.85h-2.042  v-6.099h2.042V33.009h1.055v15.292h2.042V54.399z M47.79,59.28h-2.042v4.312h-1.055V59.28H42.65V44.467h2.043v-3.136h1.055v3.136  h2.042V59.28z M58.038,46.384h-2.044v25.574h-1.055V46.384h-2.043v-8.539h2.043v-3.398h1.055v3.398h2.044V46.384z M67.917,69.04  h-2.042v2.266H64.82V69.04h-2.045V44.467h2.045V28.042h1.055v16.425h2.042V69.04z M77.969,50.915h-2.044v6.536H74.87v-6.536h-2.043  V34.011h2.043v-3.093h1.055v3.093h2.044V50.915z"/>
</svg>
