<svg xmlns="http://www.w3.org/2000/svg" x="0px" y="0px" viewBox="0 0 100 125" enableBackground="new 0 0 100 100">
  <path d="M46.375,45.75h6.25V62h-6.25V45.75L46.375,45.75z M35.125,53.25h6.25V62h-6.25V53.25L35.125,53.25z M57.625,37h6.25v25  h-6.25V37L57.625,37z M19.502,75.963c-13.336-15.09-13.337-37.835,0-52.925l10.64,10.64c-7.523,9.181-7.523,22.465,0,31.645  L19.502,75.963L19.502,75.963z M75.963,79.498c-15.09,13.336-37.835,13.336-52.925,0l10.639-10.64  c9.181,7.522,22.465,7.522,31.645,0L75.963,79.498L75.963,79.498z M79.498,23.038c13.336,15.09,13.336,37.835,0,52.925  L68.859,65.322c7.521-9.18,7.521-22.463,0-31.645L79.498,23.038L79.498,23.038z M23.038,19.502  c15.089-13.336,37.835-13.336,52.925,0l-10.641,10.64c-9.18-7.522-22.464-7.522-31.645,0L23.038,19.502L23.038,19.502z"/>
</svg>
