<svg xmlns="http://www.w3.org/2000/svg" x="0px" y="0px" viewBox="0 0 100 125" enable-background="new 0 0 100 100" xml:space="preserve">
  <g>
    <rect x="33.342" y="47.22" width="5.095" height="16.887"/>
    <rect x="47.342" y="42.22" width="5.095" height="21.887"/>
    <rect x="61.342" y="34.22" width="5.095" height="29.887"/>
    <path d="M50.045,14.728C30.689,14.728,15,30.418,15,49.772s15.689,35.045,35.045,35.045c19.354,0,35.045-15.69,35.045-35.045   S69.399,14.728,50.045,14.728z M41.437,65.607c0,0.829-0.672,1.5-1.5,1.5h-8.095c-0.828,0-1.5-0.671-1.5-1.5V45.72   c0-0.829,0.672-1.5,1.5-1.5h8.095c0.828,0,1.5,0.671,1.5,1.5V65.607z M55.437,65.607c0,0.829-0.672,1.5-1.5,1.5h-8.095   c-0.828,0-1.5-0.671-1.5-1.5V40.72c0-0.829,0.672-1.5,1.5-1.5h8.095c0.828,0,1.5,0.671,1.5,1.5V65.607z M69.437,65.607   c0,0.829-0.672,1.5-1.5,1.5h-8.095c-0.828,0-1.5-0.671-1.5-1.5V32.72c0-0.829,0.672-1.5,1.5-1.5h8.095c0.828,0,1.5,0.671,1.5,1.5   V65.607z"/>
  </g>
</svg>
