<svg xmlns="http://www.w3.org/2000/svg" xmlns:xlink="http://www.w3.org/1999/xlink" version="1.1" x="0px" y="0px" viewBox="0 0 100 125" enable-background="new 0 0 100 100" xml:space="preserve">
<path d="M81.2,55.7L93,53.1c0,0.2-0.1,0.4-0.2,0.6c-0.1,0.2-0.1,0.4-0.2,0.6c-0.1,0.2-0.1,0.4-0.2,0.6c0,0.1-0.1,0.2-0.1,0.3  c0.1,0.1,0.1,0.1,0.2,0.2c0.1,0.1,0.2,0.3,0.3,0.4c0.1,0.1,0.1,0.3,0.2,0.5c0.2,0.5,0.2,1.1,0.2,1.6c0,0.5,0,0.9,0,1.3l-0.4,0.2  c0.4,2.2,0.6,3.8,0.3,5.9c0,0.3-0.1,0.6-0.1,0.9c0,0.4,0,0.8,0.1,1.2c0,0.1,0.1,0.2,0.1,0.3c0.1,0.2,0.1,0.4,0.2,0.5  c0.3,0.5,0.7,0.9,1.4,1.2c-0.6,0.9-0.5,1.8-0.4,2.8c0,0.1,0,0.3,0,0.4c0,0-0.1,0-0.1,0.1c-0.1,0-0.1,0.1-0.2,0.1  c-0.1,0-0.2,0.1-0.3,0.1c-0.2,0.1-0.4,0.2-0.6,0.3c-0.1,0.1-0.2,0.1-0.3,0.1c0,0,0,0,0,0c0,0,0,0,0,0c0,0,0,0-0.1,0c0,0,0,0,0,0  c0,0,0,0-0.1,0c0,0,0,0-0.1,0c0,0-0.1,0-0.1,0c0,0-0.1,0-0.1,0c0,0,0,0-0.1,0c0,0-0.1-0.1-0.1-0.1c0,0,0-0.1,0-0.1c0,0,0,0,0,0  c0,0-0.1,0.1-0.1,0.1c0,0,0,0.1,0,0.1c0,0-0.1,0-0.1,0c-0.2,0.1-0.4,0.3-0.7,0.5c-0.1,0.1-0.2,0.2-0.3,0.3c-0.1,0.1-0.2,0.2-0.3,0.3  c-0.7,0.6-1.6,1.1-2.1,1.9c-0.1,0.1-0.1,0.2-0.2,0.4c-0.1,0.1-0.1,0.3-0.1,0.4c0,0.1,0,0.2,0,0.2c0,0.1,0,0.2,0,0.2  c0,0.1,0,0.1,0,0.2c0.1,0.2,0.2,0.4,0.4,0.5c0,0,0.1,0,0.1,0.1c0.1,0.1,0.3,0.1,0.4,0.2c0.6,0.4,0.5,1.2,0.2,1.9  c0,0.1-0.1,0.2-0.1,0.3c-0.6,1.1-1,2.3-1.3,3.5c-0.4,1.6-0.7,3.3-0.7,4.9c0,0.4,0,0.8,0,1.2c0,0.1,0,0.2,0,0.2c0,0.2,0,0.3-0.1,0.5  c0,0.1-0.1,0.1-0.1,0.2c-0.1,0.1-0.2,0.2-0.2,0.3c0,0-0.1,0-0.1,0.1c-0.1,0.1-0.1,0.1-0.2,0.2c0,0-0.1,0-0.1,0.1  c-0.1,0.1-0.2,0.1-0.4,0.2c0,0,0,0,0,0c-0.1,0-0.3,0.1-0.4,0.1c0,0-0.1,0-0.1,0c-0.1,0-0.2,0-0.3,0c0,0-0.1,0-0.1,0  c-0.1,0-0.3,0-0.4,0c0,0,0,0,0,0c-0.1,0-0.2,0-0.3,0c-0.1,0-0.1,0-0.2,0c-0.1,0-0.3-0.1-0.4-0.1c0,0,0-0.1,0-0.1  c0,0-0.1-0.2-0.2-0.2h0c0,0-0.1,0.1-0.2,0.1c0,0-0.1,0.1-0.1,0.1c0,0-0.1,0-0.1,0c0,0-0.1,0-0.1,0c0,0-0.1,0-0.1,0c0,0-0.1,0-0.1,0  c-0.1,0-0.1,0-0.2,0c0,0-0.1,0-0.1,0c-0.1,0-0.1,0-0.2,0c-0.1,0-0.1,0-0.2,0c-0.1,0-0.1,0-0.2,0c-0.1,0-0.1,0-0.2,0  c-0.1,0-0.1,0-0.2,0c-0.1,0-0.1,0-0.2,0c-0.1,0-0.1,0-0.2,0c-0.1,0-0.1,0-0.2,0c-0.1,0-0.1,0-0.2,0c-0.1,0-0.1,0-0.2,0  c-0.1,0-0.1,0-0.2,0c-0.1,0-0.1,0-0.2,0c-0.1,0-0.1,0-0.2,0c0,0-0.1,0-0.1,0c-0.1,0-0.1,0-0.2,0c0,0-0.1-0.1-0.1-0.1  c-0.1,0-0.1-0.1-0.1-0.1c0,0-0.1-0.2-0.1-0.2c0,0,0,0,0,0c-0.1,0,0.1,0.5,0.1,0.5v0c0-0.1-0.2-0.1-0.2-0.2c0,0-0.1,0-0.1-0.1  c0-0.1-0.1-0.1-0.1-0.2c0,0,0-0.1-0.1-0.1c0-0.1-0.1-0.1-0.2-0.2c0,0,0,0,0,0c-0.1-0.1-0.1-0.2-0.2-0.3c0,0,0,0-0.1-0.1  c-0.1-0.1-0.1-0.1-0.2-0.2c0,0-0.1-0.1-0.1-0.1c-0.1-0.1-0.1-0.1-0.2-0.2c0,0,0,0-0.1-0.1c-0.1-0.1-0.2-0.2-0.3-0.2c0,0,0,0-0.1,0  c-0.1-0.1-0.2-0.1-0.3-0.2c0,0-0.1,0-0.1-0.1c-0.1,0-0.2-0.1-0.2-0.1c0,0-0.1,0-0.1,0C77.3,89.1,77.1,89,77,89c0,0,0,0,0,0  c-0.1,0-0.2-0.1-0.3-0.1c0,0-0.1,0-0.1,0c-0.1,0-0.2,0-0.2,0c0,0-0.1,0-0.1,0c0,0,0,0-0.1,0c0,0-0.1,0-0.1,0c0,0-0.1,0-0.1,0  c-0.1,0-0.1,0-0.2,0.1c0,0-0.1,0-0.1,0c-0.1,0-0.1,0.1-0.2,0.1c0,0-0.1,0-0.1,0.1c-0.1,0.1-0.2,0.2-0.2,0.3c0,0,0,0,0,0l-0.5,0  l-1,0.1L73.1,89l-0.6-0.5l0,0l0,0c-0.1,0-0.3,0.1-0.4,0.1c0,0-0.1,0-0.1,0c-0.1,0-0.2,0-0.3,0c-0.1,0-0.2,0-0.3,0c0,0-0.1,0-0.1,0  c0,0-0.1,0-0.1,0c-0.1,0-0.2,0-0.3,0c-0.1,0-0.2,0-0.3,0c-0.1,0-0.1,0-0.2,0c-0.1,0-0.3,0.1-0.4,0.1c0,0,0,0.2-0.1,0.2h0  c-0.1,0-0.2-0.2-0.3-0.2c-0.1,0-0.1-0.2-0.1-0.2c-0.1,0-0.3,0.1-0.4,0.1c0,0,0,0,0,0c-0.1-0.1-0.2-0.1-0.2-0.2c0,0-0.1,0-0.1-0.1  c-0.1-0.1-0.1-0.1-0.2-0.2c0,0-0.1-0.1-0.1-0.1c-0.1-0.1-0.1-0.1-0.2-0.2c0,0,0,0-0.1-0.1c-0.1-0.1-0.2-0.2-0.3-0.3  c-0.1-0.1-0.2-0.1-0.2-0.2c0,0-0.1-0.1-0.1-0.1c-0.1-0.1-0.1-0.1-0.2-0.2c0,0-0.1-0.1-0.1-0.1c-0.1-0.1-0.1-0.1-0.2-0.2  c0,0-0.1,0-0.1-0.1c-0.1-0.1-0.2-0.2-0.3-0.2c0,0,0,0-0.1,0c-0.1-0.1-0.2-0.1-0.2-0.2c0,0-0.1,0-0.1-0.1c-0.1,0-0.1-0.1-0.2-0.1  c0,0-0.1,0-0.1-0.1c-0.1,0-0.2-0.1-0.2-0.1c0,0,0,0-0.1,0c-0.1,0-0.2-0.1-0.3-0.1c0,0-0.1,0-0.1,0c-0.1,0-0.1,0-0.2,0  c0,0-0.1,0-0.1,0v0c0,0,0,0.1,0,0.1l0,0.1c0,0,0,0.2,0,0.2v0c0,0,0-0.1,0-0.1L64.8,86c-0.6,0-0.3,0-0.4,0c0,0-0.1,0-0.1,0  c0,0-0.1,0.1-0.1,0.1c0,0,0,0.1,0,0.1l0,0c-0.1,0.1-0.2,0.1-0.3,0.2l0.2-1l0.7-0.4l-0.2-0.6c-0.6-0.1-1.2-0.2-1.7-0.4  c-0.2-0.1-0.3-0.2-0.5-0.3l0,0l0,0l-0.2,0.1L62.2,84l0,0.1l0,0c-0.1-0.1-0.2-0.2-0.2-0.2v0c0,0-0.3,0-0.3,0c-0.1,0-0.4,0-0.5,0  c0,0-0.1,0.1-0.1,0.1c-0.1,0-0.3,0.2-0.5,0.2c0,0,0,0,0,0c-0.2,0-0.4-0.2-0.5-0.2l-0.3-1.1c0.2-0.3,0.4-0.6,0.6-0.8  c0.1-0.1,0.2-0.2,0.2-0.4c0.1-0.1,0.1-0.2,0.2-0.3c0.1-0.3,0.2-0.6,0.2-1c0-0.3,0-0.5,0-0.8c-0.1-0.9-0.1-1.8-0.2-2.7  c0,0,0.2-0.1,0.2-0.1c0,0,0-0.1,0-0.1c0-0.2-0.2-0.3-0.2-0.5c0-0.1-0.2-0.1-0.2-0.2c0-0.2,0.1-0.4,0.2-0.6c0.1-0.1,0.2-0.3,0.4-0.3  c0.1-0.1,0.3-0.2,0.5-0.2c1.3-0.5,2.6-0.8,4-0.9l0,0l0,0c-0.5-1.4-0.8-2.9-0.8-4.4c0.3-0.1,0.6-0.1,0.9-0.1c0.1,0,0.2,0,0.3,0  c0,0,0,0,0,0c0.1,0,0.1,0,0.2,0c0.1,0,0.2,0,0.4,0c0.1,0,0.2,0,0.3,0c0.2,0,0.3,0,0.5,0c0,0,0,0,0.1,0c0.1,0,0.2,0,0.4,0  c0.2,0,0.5,0,0.7,0H69v0.1v-0.1c-1-0.2-0.2-0.4-0.3-0.6c-0.1-0.3-0.3-0.5-0.3-0.8c0,0,0-0.1,0-0.1c0-0.2-0.1-0.5-0.1-0.7  c0-0.1,0-0.2,0-0.3c0-0.2-0.1-0.4-0.1-0.6c0-0.3-0.1-0.6-0.1-0.9c0-0.8,0.3-2.1,0.2-3c0-0.2,0-0.4-0.1-0.6c-0.4-1-1.6-1.3-2.6-1.7  c0.2,0,0.4-0.1,0.6-0.1c1-0.4,2-0.7,3-1c0.5-0.1,0.9-0.3,1.4-0.4c0.6-0.2,1-0.6,1.3-1.1c0.4-0.9,0.9-1.5,1.5-2.2c0,0,0,0,0,0  c1.2-0.5,2.5-1,3.8-1.4l0.1,0c0.5,0.3,1,0.7,2,1.6l0.1,0.1c0.4,0.4,1,0.6,1.5,0.6C80.9,55.7,81.1,55.7,81.2,55.7z M74.9,12.4  c0.1,0,0.1,0,0.2,0c0,0,0.1,0,0.1,0c0.1,0,0.1,0.1,0.2,0.1c0,0,0,0.1,0.1,0.1c0.1,0,0.2,0.3,0.2,0.3c0,0,0,0,0,0  c0.1,0,0.2-0.1,0.3-0.1c0.1,0,0.1-0.2,0.2-0.1c0,0,0.1,0,0.1,0c0,0,0.1,0,0.1,0c0,0,0-0.1,0.1,0c0.1,0,0.1-0.1,0.2-0.1c0,0,0,0,0,0  c0.1,0,0.1,0.1,0.2,0.1c0.1,0,0.1,0.1,0.2,0.1c0.1,0,0.2,0,0.3-0.1c0.2-0.1,0.4-0.2,0.8-0.3c1-0.4,1.8-1.1,2.7-1.9  c0.5-0.4,1-0.9,1.5-1.3c0.1-0.1,0.3-0.2,0.4-0.3c0,0,0.1-0.1,0.1-0.1c0.1-0.1,0.2-0.1,0.3-0.2c0.1,0,0.1-0.1,0.2-0.1  c0.1-0.1,0.2-0.1,0.4-0.2c0,0,0.1,0,0.1-0.1c0.2-0.1,0.3-0.2,0.5-0.2c0,0,0.1,0,0.1,0C84.3,8.1,84.4,8,84.6,8c0.1,0,0.1,0,0.2,0  c0.1,0,0.2,0,0.4-0.1c0.1,0,0.1,0.1,0.2,0c0.2,0,0.3,0.1,0.5,0.1h0c0.2,0,0.3-0.2,0.5-0.2c0,0,0.1-0.2,0.1-0.2c0.2,0,0.3,0,0.4,0  c0,0,0.1,0,0.1,0c0.2,0,0.4,0.1,0.5,0.1c0,0,0.1,0,0.1,0C87.8,7.9,88,8,88.1,8.1c0,0,0.1,0,0.1,0.1c0.2,0.1,0.4,0.2,0.5,0.3  c0.2,0.1,0.4,0.3,0.6,0.4c0.2,0.1,0.4,0.3,0.5,0.4c0.5,0.4,0.9,0.9,1.2,1.4c0.3,0.5,0.5,1.1,0.5,1.8c0,0.2,0,0.4,0,0.6  c0.1,1.5,0.1,3.4-0.5,4.7c-0.2,0.4-0.4,0.7-0.6,1c0,0.1-0.1,0.1-0.1,0.2c-0.1,0.2-0.2,0.3-0.3,0.5c-0.1,0.1-0.1,0.3-0.2,0.5  c0,0.1,0,0.1,0,0.2c0,0.1,0,0.3,0,0.5c0,0,0,0,0,0.1c0,0.2,0.1,0.3,0.1,0.5c0,0.1,0.1,0.1,0.1,0.2c0.1,0.1,0.2,0.3,0.4,0.4  c0.4,0.4,0.8,0.7,0.9,0.9c0.5,2.9-2.8,3.9-2.6,6.5c0.1,1.1,0.6,1.7,1.2,2.1c0.1,0.1,0.2,0.1,0.3,0.2c0.2,0.1,0.5,0.2,0.7,0.4  c0.4,0.2,0.7,0.3,1.1,0.5c0.5,0.3,0.9,0.6,1.2,1l-0.3,1.2l-0.5,0l0.2,0.7c-0.7,0.6-1.1,1.3-1.4,2.1c-0.1,0.3-0.2,0.6-0.2,0.9  c0.4,0.3,0.6,0.6,0.9,1c0.2,0.2,0.3,0.5,0.4,0.7c0.1,0.3,0.2,0.5,0.2,0.8c0.5,2.4-0.5,5.2-0.5,7.6c0,0.1,0,0.3,0,0.4  c0,0.3,0,0.5,0.1,0.8c0,0.1,0,0.3,0.1,0.4c0.1,0.2,0.1,0.5,0.2,0.7c0.1,0.1,0.1,0.2,0.2,0.4l-12,2.6c-0.9-0.8-1.6-1.4-2.3-1.8  c-0.3-0.2-0.5-0.3-0.8-0.4c-0.1-0.1-0.3-0.1-0.5-0.2l0,0l0,0c-0.8,0.3-1.6,0.6-2.4,0.9c-0.8,0.3-1.6,0.6-2.4,0.9  c-0.2,0.1-0.3,0.1-0.5,0.2c-0.8,0.8-1.5,1.7-2.2,3c-1.5,0.5-3,0.9-4.4,1.5c-0.1-0.1-0.1-0.2-0.2-0.3c-0.4-0.7-0.5-1.5-0.5-2.3  c0-0.2,0-0.4,0-0.7c0-0.6,0.1-1.2,0.1-1.8c0-0.3,0-0.6,0-0.9c0-0.3,0-0.6,0-0.9c-0.1-0.6-0.2-1.3-0.3-1.9c-0.1-0.6-0.3-1.2-0.5-1.8  c-0.4-1.2-1-2.4-1.7-3.5c0-0.1-0.1-0.1-0.1-0.2c-0.1-0.2-0.2-0.4-0.3-0.7c0-0.1,0-0.1,0-0.2c0-0.3,0.2-0.6,0.4-0.9  c0-0.1,0.1-0.1,0.1-0.2c0,0,0.1-0.1,0.1-0.1c0.2-0.3,0.4-0.5,0.5-0.8c0.1-0.1,0.2-0.3,0.3-0.4c0.2-0.4,0.5-0.9,0.7-1.3  c0.1-0.2,0.1-0.3,0.2-0.5c0-0.1,0-0.2,0-0.3c0-0.1,0-0.2,0-0.3c0-0.2-0.2-0.4-0.3-0.6c-0.2-0.2-0.3-0.3-0.5-0.4  c-0.6-0.5-1.3-0.9-1.9-1.4c-0.4-0.3-0.7-0.6-1.1-0.8c-0.1,0-0.1-0.1-0.2-0.1c-0.2-0.2-0.4-0.3-0.6-0.5c0.2-0.3,0.3-0.6,0.4-0.8  c0.2-0.5,0.4-1,0.6-1.5c0.2-0.6,0.3-1.1,0.4-1.7c0,0,0-0.1,0-0.1c0.2-0.9,0.4-1.9,0.7-2.9c0-0.1,0.1-0.3,0.1-0.4  c0.5-1.4,1-2.9,1.5-4.3c0.2-0.5,0.4-1,0.6-1.5c0.4-1,1-2,1.1-3.1c0-0.1,0-0.2,0-0.3c0-0.2,0-0.4,0-0.6c0-0.1,0-0.2,0-0.3  c0-0.4-0.1-0.8,0-1.2c0-0.1,0.1-0.3,0.1-0.4c0,0,0-0.1,0-0.1c0-0.1,0.1-0.1,0.1-0.2c0,0,0-0.1,0.1-0.1c0-0.1,0.1-0.1,0.1-0.2  c0,0,0,0,0.1-0.1c0,0,0.1-0.1,0.1-0.1c0,0,0,0,0.1,0c0.1,0,0.1-0.1,0.2-0.1c0,0,0,0,0,0c0.1,0,0.1,0,0.2,0c0,0,0.1,0.1,0.1,0.1  c0.1,0,0.1,0.1,0.2,0.1c0,0,0,0,0,0c0,0,0.1,0,0.1,0c0.1,0,0.1,0,0.2,0c0,0,0.1,0,0.1,0c0.1,0,0.3-0.2,0.4-0.2c0,0,0.1-0.2,0.1-0.2  c0.1,0,0.3,0,0.4,0c0.1,0,0.3,0,0.5,0c0,0,0.2,0,0.2,0c0.2,0-0.3,0,0.7,0.1v0.1c0,0-0.1,0.1,0.1,0.1c0,0,0,0,0.1,0  c0.1,0,0.2-0.1,0.3-0.1c0.2,0,0.3-0.1,0.5-0.1c0.1,0,0.2,0,0.3,0c0.2,0,0.3,0,0.5,0c0.1,0,0.2,0,0.3,0c0.1,0,0.3,0,0.4-0.1  c0.1,0,0.2,0,0.3-0.1c0.1,0,0.3-0.1,0.4-0.1c0.1,0,0.2,0,0.3-0.1c0.1,0,0.3-0.1,0.4-0.1c0.1,0,0.2-0.1,0.3-0.1  c0.2-0.1,0.3-0.1,0.5-0.2c0.1,0,0.2-0.1,0.2-0.1c0.2-0.1,0.4-0.2,0.7-0.4l0,0C74.7,12.5,74.8,12.4,74.9,12.4  C74.9,12.4,74.9,12.4,74.9,12.4z M62.5,53c0.1-0.8,0.1-1.5,0.1-2.1c-0.3-2.2-1.1-4.4-2.3-6.2l0,0c-0.2-0.4-0.6-1-0.7-1.8  c-0.2-1.4,0.5-2.3,0.9-2.9l0,0c0.4-0.6,0.7-1.1,1-1.8L60,37.1l-2-1.5c-0.9-0.7-1.2-1.9-0.7-2.9c0.3-0.6,0.5-1.1,0.7-1.7  c-0.5,0.1-1,0.2-1.4,0.2c-0.3,0.6-0.8,1.1-1.3,1.5C55,32.9,54.6,33,54.1,33c-0.1,0-0.1,0-0.2,0l-0.6-0.1c-0.1,0.1-0.3,0.2-0.4,0.3  c-0.3,0.2-0.5,0.3-0.5,0.4c-0.3,0.9-1.2,1.4-2.1,1.4c-0.1,0-0.2,0-0.4,0l-0.1,0.4c-0.2,0.7-0.7,1.3-1.5,1.5  c-1.3,0.4-2.7,1.5-3.1,3.1c-0.1,0.6-0.5,1.2-1.1,1.5c-0.3,0.2-0.7,0.2-1,0.2c-0.1,0-0.2,0-0.3,0c-0.1,0.2-0.2,0.5-0.3,0.7  c-0.4,1.1-1.3,3.3-4,3.4c-0.5,0.7-1.2,1.1-1.9,1.4c-0.1,0.4-0.3,0.8-0.5,1.1c-0.4,0.6-1.1,1-1.8,1c-0.1,0-0.2,0-0.3,0l-0.1,0  c-0.1,0.6-0.4,1.1-0.8,1.4l-0.2,0.2c0,0.9-0.2,1.9-0.6,2.7c0,0.6-0.3,1.1-0.7,1.5l-1.4,1.2c-0.4,0.4-0.9,0.6-1.5,0.6  c-0.3,0-0.7-0.1-1-0.2c-0.4,0.3-0.9,0.5-1.5,0.5c-0.1,0-0.2,0-0.2,0l-0.1,0c-0.1,0.1-0.1,0.2-0.2,0.3c0,0,0,0.1,0,0.1  c0.3,1.2,0.9,2.6,1.6,3.9l0.2,0.4c0.5,0.9,0.7,1.2,0.8,1.3c0,0,0.1,0,0.1,0c0.3,0,0.7,0.1,1.2,0.2c1.5,0.5,2.4,2,2.1,3.4  c-0.1,0.5-0.4,0.9-0.6,1.1c0,0.2,0.2,0.5,0.5,1l1.2,1.9l0.5,0.8c0.5,0,1,0,1.5,0c1.4,0,2.6,0.1,3.6,0.4c0.4-0.1,0.9-0.2,1.4-0.1  c0.4,0,0.8,0,1.1,0.1c0.3,0,0.5,0,0.7,0c0.3,0,0.4,0,0.4-0.1c0.4-0.3,0.8-0.4,1.3-0.4c0.4,0,0.7,0.1,1.1,0.3l1.4,0.7  c0.8,0.4,1.3,1.3,1.2,2.1c0.3,0.4,0.4,0.9,0.4,1.4c0.4,0.4,0.7,0.8,0.9,1.1c0.1,0.1,0.1,0.2,0.2,0.3c0.1,0,0.2,0,0.3,0  c0.2,0,0.4-0.1,0.7-0.1c0.2-0.2,0.5-0.3,0.8-0.4c0.5-0.1,1-0.2,1.5-0.3c0.6-0.1,1.2-0.2,1.6-0.3c0.2-0.1,0.4-0.1,0.6-0.1  c0.2,0,0.4,0,0.6,0.1c0.2-0.1,0.5-0.1,0.7-0.1c0.3,0,0.7,0.1,1,0.2c0.5-0.1,1-0.1,1.4-0.1c0.2,0,0.3,0,0.5,0c0-0.1,0-0.3,0-0.4  c0.1-0.5,0.2-1.1,0.6-1.7c0.5-0.7,1.2-1.1,1.8-1.4c0.7-0.3,1.4-0.5,2.2-0.7c-0.2-0.9-0.2-1.8-0.2-2.7c0-1,0.7-1.9,1.8-2.1  c0.5-0.1,1-0.2,1.5-0.2c-0.1-0.6-0.2-1.3-0.2-1.9c0-0.6,0-1.2,0.1-1.8c0-0.3,0.1-0.7,0.1-1c-0.2-0.1-0.6-0.2-0.8-0.3  c-1.1-0.4-2.6-1-3.4-2.5c-0.4-0.9-0.3-1.9,0.5-2.6l0.3-0.3C62.3,55.3,62.4,54.1,62.5,53z M27.1,54.5c0,0,0.1,0,0.1,0h0  c0.1,0,0.2,0,0.2,0l0,0c0,0,0.1,0,0.1,0c0,0,0,0,0,0c0,0,0.1,0,0.1,0c0.1,0,0.1,0,0.2,0c0,0,0.1,0,0.1,0c0.1,0,0.1,0,0.2,0.1l0,0  c0,0,0.1,0,0.1,0c0,0,0,0,0,0c0.1,0,0.2,0.1,0.3,0.1l0,0l0.5-0.4l0.9-0.8l-0.1-0.2l0-0.1c0.3-0.3,0.4-0.7,0.6-1.2  c0.1-0.4,0.2-0.9,0.2-1.3c0-0.3,0-0.6-0.1-0.9l1.2-0.9c-0.3-0.5-0.6-1-0.8-1.5c-0.1-0.4-0.2-0.8-0.1-1.2c0-0.1,0.1-0.3,0.1-0.4  l0.1,0l0.1,0l0,0l0,0l0.4,0.3l0,0l0.9-0.3l0,0l0,0l0.8,0.6l0,0.7l0.9,0.1c0.2-0.3,0.3-0.6,0.3-0.9c0-0.1,0-0.2,0-0.2  c0-0.2-0.1-0.5-0.2-0.7l0,0l0,0l0,0c0.2,0,0.3,0.1,0.5,0.1l0,0c0,0,0.1,0,0.1,0l0,0c0.1,0,0.3-0.1,0.4-0.2l0,0c0,0,0.1-0.1,0.1-0.1  h0.1c0.1,0,0.5,0.2,0.5,0.2v-0.1c0,0-0.1-0.1-0.1-0.1c0,0,0,0,0,0c0.1,0,0.1,0,0.1-0.1v0c0,0,0,0,0-0.1c0,0,0,0,0,0  c0-0.1,0-0.1,1-0.2v0c0,0-0.2,0.3-0.2,0.3h-0.1c0.1,0,0.1-1,0.1-1c0,0,0,0,0,0c0,0,0,0,0.1,0h0c0.1,0,0.1,0,0.2,0c0,0,0,0,0,0  c0,0,0-0.1,0.1-0.1c0,0,0,0,0,0c0.1-0.1,0.1-0.3,0.2-0.4c0.2,0.1,0.4,0.1,0.5,0.1c0,0,0.1,0.2,0.1,0.2c0.2,0,0.3,0.2,0.4,0.2  c0,0,0,0,0.1,0l0,0c0.1,0,0.4-0.2,0.5-0.2l0,0c0,0,0.1-0.1,0.1-0.1l-0.1-0.1c0,0,0.1-0.4,0.1-0.4V43c0,0,0.2,0,0.2,0h0  c0.1,0,0.2,0,0.3,0h0c0,0,0.5,0.3,0.5,0.2c0,0,0,0,0,0c0-0.1-0.1-0.1,0-0.2c0,0-0.1,0-0.1,0c0,0,0,0,0,0c0,0,0,0,0,0  c0.1-0.1,0.2-0.2,0.2-0.2c0,0,0,0,0,0c0,0,0,0,0,0c0,0-0.1,0-0.1,0c0.1-0.1,0.1-0.2,0.1-0.3c0,0,0,0,0,0c0,0,0.1,0,0.1,0  c0,0,0,0,0,0c0-0.1,0.1-0.2,0.1-0.3c0,0,0,0,0,0c0,0,0,0,0,0c0,0,0,0,0,0c0-0.1,0.1-0.2,0.1-0.3c0,0,0,0,0,0c0-0.1,0.1-0.2,0.1-0.3  c0,0,0,0,0,0c0,0,0,0,0,0c0,0,0,0,0,0c0-0.1,0.1-0.2,0.1-0.3c0,0,0,0,0,0c0,0,0,0,0,0c0,0,0,0,0,0c0.1-0.1,0.1-0.2,0.2-0.3l0,0  c0,0,0,0,0,0c0.1-0.1,0.1-0.2,0.2-0.3c0,0,0,0,0,0c0.1-0.1,0.1-0.2,0.2-0.3c0,0,0,0,0,0c0.1-0.1,0.2-0.2,0.3-0.2c0,0,0,0,0,0  c0.1-0.1,0.2-0.1,0.3-0.2v0c0,0,0,0,0,0l0,0c0.1-0.1,0.3-0.1,0.4-0.2l0,0l0,0l0,0l0.7,0.3c0.1-0.7,0.4-1.4,0.8-2  c0.5-0.7,1.1-1.3,1.8-1.8c0.5-0.3,1-0.6,1.5-0.8c0.1-0.1,0.3-0.1,0.4-0.1l0.4-1.4l0.9-0.5l0.1-0.6l0,0l0,0l1.3,0.4  c0.1-0.3,0.2-0.5,0.4-0.7c0.1-0.1,0.2-0.2,0.3-0.3c0.5-0.4,1.1-0.7,1.5-1.2l0,0l0,0l0.8,0.1l0.8,0.1c0.7-0.5,0.9-1.4,0.9-2.3  l0.2-0.1l0,0l0,0c0,0,0,0,0,0c0.1,0.1,0.2,0.2,0.3,0.2c0,0,0.1,0,0.1,0.1c0.1,0,0.2,0.1,0.2,0.1c0,0,0.1,0,0.2,0  c0.1,0,0.2,0,0.2,0.1c0.1,0,0.1,0,0.2,0c0.1,0,0.1,0,0.2,0c0.1,0,0.1,0,0.2,0c0.1,0,0.1,0.1,0.2,0.1c0.1,0,0.1,0.1,0.2,0.1h0.1  c0,0,0.7-0.2,0.7-0.3v0c0,0-0.2,0-0.1-0.1c0,0-0.1,0,0,0c0.1,0,0.2-0.1,0.3-0.2l0.2-0.6c0.2,0,0.4-0.1,0.6-0.1  c0.1-0.6,0.3-1.2,0.5-1.8c0.6-1.9,1.3-3.7,2-5.5l0.3-0.8c0.1-0.4,0.3-0.7,0.4-1c0.3-0.6,0.5-1.2,0.6-1.7c0-0.1,0-0.4,0-0.6  c0-0.5-0.1-1.1,0-1.7c0.1-0.4,0.2-0.8,0.4-1.2c-1.2,0.6-2.6,1.3-3,2.5l-0.2,0l-0.1,0l0,0l0,0l-1.3-1c-0.1,0-0.2,0.1-0.3,0.1  c0,0,0,0,0,0c-0.2,0-0.3-0.1-0.5-0.1c0,0,0-0.1-0.1-0.1c-0.2,0-0.3,0-0.5,0.1c0,0-0.1,0-0.1,0c-0.1,0.1-0.3,0.1-0.4,0.2  c0,0-0.2,0-0.2,0c-0.1,0.1,0.5,0.2-0.5,0.3c0,0,0,0,0,0l0,0l0,0l-0.6-0.2l-1.1-2.6l-0.7-0.1l-0.7-0.1c-0.1,0.1-0.1,0.3-0.2,0.4  c-0.4,0.6-0.9,1.1-1.5,1.4c0,0.2,0,0.4,0,0.6c0,0.6,0,1.3-0.1,1.9c-0.1,1.2-0.3,2.3-0.7,3.3c-0.2,0.5-0.4,1-0.9,1.5  c-1,1-2.1,1.1-2.8,1.2c-1,2.6-2.4,5.7-4.8,8.4c-0.8,0.9-2,2.3-4.1,2.2c-0.3,0-0.7,0-1-0.1c-0.8-0.2-1.3-0.5-1.8-0.7  c-0.1-0.1-0.2-0.1-0.3-0.2c-0.1,0-0.2,0-0.3,0c-0.2,0-0.5,0-0.8,0c-0.1,0-0.2,0-0.3,0c-0.3,0.1-0.5,0.2-0.8,0.2  c0.2,0.6,0.2,1.2-0.1,1.8c-1.2,2.4-5.2,3.9-7,4.3c-0.2,0-0.3,0-0.5,0c-0.3,0-0.5,0-0.8-0.1c-1.2-0.4-1.7-0.5-2.6-0.5  c-0.1,0-0.3,0-0.4,0c-0.1,0-0.2,0-0.3,0c-0.8,0-1.5-0.1-2-0.2c-0.9-0.1-2-0.2-3.3-0.4c-0.7,0-1.5-0.1-2.4-0.4  c-0.5-0.2-1-0.4-1.4-0.6c-0.4-0.2-0.9-0.5-1.2-0.5h0c-0.1,0-0.1,0-0.2,0c-0.7,0-1.3-0.3-1.8-0.8c-0.2-0.2-0.7-0.4-1.2-0.5  c0,0-0.1,0-0.1,0c0,0,0,0.1,0,0.1c-0.1,1-0.2,1.9-0.2,2.9c0,0.6,0.2,1.2,0.3,1.9c0.2,0.6,0.3,1.2,0.3,1.8l-1-0.1  c0,0.3,0.1,0.6,0.1,0.9c0,0.6,0,1.2,0,1.8c0,0.3,0,0.6,0,0.9c0,0.6,0,1.2-0.1,1.7c0.6-0.3,1.3-0.4,1.8-0.4l0,0  c1.9,0,3.4,1.3,4.5,2.3c0.3,0.2,0.6,0.6,0.8,0.7c0.2,0.1,0.4,0.2,0.9,0.2c0.5,0,1.2-0.1,1.9-0.3c0.4-0.1,0.8-0.2,1.2-0.2  c0.1,0,0.2,0,0.4,0c0.9,0,1.7,0.5,2.1,1.3c0.3,0.5,1,1.3,1.6,1.9c0.2-0.1,0.4-0.1,0.6-0.1c0.2,0,0.4,0,0.6,0.1c0.1,0,0.2,0,0.4,0.1  c0.9,0.2,2,0.3,2.8,1.1l0.1,0.1c0.2,0.2,0.7,0.7,0.8,1.3C27,54.5,27,54.5,27.1,54.5L27.1,54.5z M7.7,19.4c0,2.4,0,4.9,0.1,7.3  c0,1.5,0.5,3.8-0.1,5.3c-0.1,0.2-0.2,0.4-0.4,0.6c0.7,0.1,1.3,0.2,1.9,0.5c0.4,0.2,0.7,0.4,1,0.7c0.1,0,0.2,0,0.2,0c0,0,0.1,0,0.1,0  c0.1,0,0.1,0,0.2,0c0.1,0,0.2,0,0.2,0c0.1,0,0.1,0,0.2,0c0.1,0,0.2,0,0.2,0.1c0.1,0,0.1,0,0.2,0.1c0.1,0,0.2,0.1,0.2,0.1  c0.1,0,0.1,0,0.2,0.1c0.1,0,0.2,0.1,0.3,0.1c0.1,0,0.1,0.1,0.2,0.1c0.1,0.1,0.2,0.1,0.3,0.2c0.1,0,0.2,0.1,0.3,0.1  c0.1,0,0.1,0,0.2,0.1c0.1,0.1,0.3,0.1,0.4,0.2c0.4,0.1,0.7,0.2,1,0.2c0.3,0,0.6,0.1,0.9,0.1c0.5,0.1,1.1,0.2,1.7,0.2  c0.6,0.1,1.2,0.1,1.7,0.2c0.1,0,0.3,0,0.4,0.1c0,0,0.1,0,0.1,0c0.1,0,0.2,0,0.3,0c0.1,0,0.1,0,0.2,0c0.1,0,0.2,0,0.3,0  c0.1,0,0.1,0,0.2,0c0.1,0,0.3,0.1,0.4,0.1c0.2,0,0.3,0.1,0.5,0.1c0,0,0,0,0,0c0.1,0,0.1-0.1,0.2-0.1c0.1,0,0.2,0,0.3,0  c0.1,0,0.1,0,0.2,0c0.1,0,0.2,0,0.3,0c0.1,0,0.1,0,0.2,0c0.1,0,0.2,0,0.2,0c0.1,0,0.1,0,0.2,0c0.1,0,0.2,0,0.2,0c0.1,0,0.1,0,0.2,0  c0.1,0,0.2,0,0.3,0.1c0.1,0,0.1,0,0.2,0c0.1,0,0.2,0.1,0.3,0.1c0.1,0,0.1,0,0.2,0c0.2,0.1,0.3,0.1,0.5,0.2c1.6-0.3,4.8-1.7,5.5-3.1  L29,31.5c0.6-0.9,1.6-0.9,2.6-1c0.2,0,0.4-0.1,0.5-0.1c0.3-0.1,0.5-0.2,0.7-0.3l0,0l0,0c0.1,0,0.2,0.1,0.3,0.1c0,0,0.1,0,0.1,0  c0.1,0,0.1,0,0.2,0c0,0,0.1,0,0.1,0c0.2,0,0.3,0,0.5,0c0.2,0,0.3,0,0.5,0c0,0,0,0,0,0c0,0,0.1,0,0.1,0c0,0,0.1,0,0.1,0  c0.1,0,0.2,0,0.3,0.1c0.2,0,0.3,0.1,0.5,0.2c0.2,0.1,0.3,0.2,0.5,0.3c0.3,0.2,0.6,0.4,1,0.4c0.2,0,0.3,0,0.5,0.1c0,0,0,0,0.1,0  c0.1,0,0.3,0,0.4,0c0,0,0,0,0.1,0c0.1,0,0.3-0.1,0.4-0.1c0,0,0.1,0,0.1,0c0.1,0,0.2-0.1,0.2-0.1c0,0,0.1,0,0.1-0.1  c0.1,0,0.1-0.1,0.2-0.1c0,0,0.1-0.1,0.1-0.1c0.1-0.1,0.1-0.1,0.2-0.2c0,0,0.1-0.1,0.1-0.1c0.1-0.1,0.1-0.1,0.2-0.2  c0,0,0.1-0.1,0.1-0.1c0.1-0.1,0.2-0.2,0.3-0.3c1-1.2,1.9-2.5,2.6-3.8c0.2-0.3,0.4-0.7,0.5-1c0.3-0.6,0.6-1.2,0.8-1.8  c0.1-0.1,0.1-0.3,0.2-0.4c0.1-0.1,0.1-0.3,0.2-0.4c0.1-0.2,0.2-0.4,0.2-0.6c0.1-0.2,0.2-0.4,0.3-0.6c0.3-0.3,0.6-0.4,1-0.4  c0.1,0,0.3,0,0.4,0c0.2,0,0.4,0,0.6,0c0.1,0,0.1,0,0.2,0c0.2-0.1,0.5-0.2,0.7-0.4c0.1-0.1,0.2-0.3,0.3-0.5c0-0.1,0.1-0.2,0.1-0.3  c0.2-0.5,0.3-1,0.4-1.5c0.1-0.4,0.1-0.8,0.2-1.2c0-0.2,0-0.5,0-0.7c0-0.1,0-0.2,0-0.4c0-0.7,0-1.3,0.1-2c0,0-0.1-0.1-0.2-0.1  c0,0,0,0-0.1,0c0,0-0.1-0.1-0.1-0.1c0,0-0.1,0-0.1-0.1c0,0-0.1,0-0.1-0.1c0,0,0,0,0,0c0,0-0.1,0-0.1-0.1C48.1,13,48,13,48,13  c0,0-0.1,0-0.1-0.1c-0.1,0-0.1,0-0.2-0.1c-0.1,0-0.1-0.1-0.2-0.1c0,0-0.1,0-0.1-0.1c-0.1,0-0.1,0-0.2-0.1c-0.1,0-0.1,0-0.2-0.1  c-0.1,0-0.1,0-0.2-0.1c-0.1,0-0.1,0-0.2-0.1c-0.1,0-0.1,0-0.2-0.1c-0.1,0-0.1,0-0.2-0.1c-0.1,0-0.1,0-0.2-0.1c-0.1,0-0.1,0-0.2-0.1  c-0.1,0-0.1,0-0.2,0c-0.1,0-0.1,0-0.2-0.1c-0.1,0-0.1,0-0.1,0c-0.1,0-0.1,0-0.2,0c0,0-0.1,0-0.1,0c-0.1,0-0.1,0-0.2,0  c0,0-0.1,0-0.1,0c-0.1,0-0.1,0-0.2,0c0,0-0.1,0-0.1,0c0,0-0.1,0-0.1,0c0,0-0.1,0-0.1,0c0,0-0.1,0-0.1,0l0,0l0,0l0.1-0.8  c-0.4,0.1-0.9,0.2-1.3,0.3c-3,1-5.5,3.2-8,4.9c0,0-0.1,0.1-0.1,0.1c0,0,0,0,0,0c0,0-0.1,0-0.1,0.1c0,0,0,0-0.1,0c0,0-0.1,0-0.1,0  c0,0,0,0-0.1,0c0,0,0,0,0,0c0,0-0.1,0-0.1,0c0,0-0.1,0-0.1,0c-0.1,0-0.2-0.1-0.2-0.2c0,0-0.1-0.1-0.1-0.1c-0.3-0.4-0.7-0.8-1-1.2  c-0.6-0.8-1.2-1.7-1.7-2.6c-0.2-0.4-0.5-0.9-0.7-1.4c0-0.1,0-0.1-0.1-0.2c-0.2-0.4-0.3-0.7-0.7-1c-0.2-0.1-0.4-0.2-0.6-0.3  c-0.2,0-0.4-0.1-0.6-0.1c-0.1,0-0.3,0-0.4,0c-0.2,0-0.4,0.2-0.7,0.2c-0.2,0-0.3,0.2-0.5,0.2c0,0-0.1,0-0.1,0c0,0,0-0.2,0-0.2  c-0.1,0-0.2-0.1-0.3-0.1c-0.1,0-0.1-0.1-0.2-0.1c-0.1,0-0.2,0-0.3,0c-0.1,0-0.1,0-0.2,0c-0.1,0-0.2,0-0.3-0.1c-0.1,0-0.1,0-0.2,0  c-0.2,0-0.3-0.1-0.5-0.1c0,0,0,0,0,0c-0.4-0.1-0.7-0.3-1-0.4c-0.2-0.1-0.3-0.2-0.5-0.3c-0.3-0.2-0.6-0.4-0.9-0.6  c-0.5-0.3-0.9-0.6-1.4-0.9c-0.1-0.1-0.3-0.2-0.5-0.2c0,0-0.1,0-0.2-0.1c-0.1-0.1-0.3-0.1-0.4-0.2c-0.1,0-0.1,0-0.2-0.1  c-0.2-0.1-0.4-0.1-0.6-0.2c0,0,0,0-0.1,0c-0.2-0.1-0.4-0.1-0.6-0.2c-0.1,0-0.1,0-0.2-0.1C18.2,6,18,6,17.8,5.9c-0.1,0-0.1,0-0.2,0  c-0.2-0.1-0.5-0.1-0.7-0.1c0,0-0.1,0-0.1,0c-0.2,0-0.4-0.1-0.6-0.1c-0.1,0-0.1,0-0.2,0c-0.2,0-0.4,0-0.5,0c-0.1,0-0.1,0-0.2,0  c-0.2,0-0.4,0-0.7,0c0,0-0.1,0-0.1,0c-0.2,0-0.4,0-0.5,0.1c-0.1,0-0.1,0-0.2,0c-0.1,0-0.3,0.1-0.4,0.1c-0.1,0-0.1,0-0.2,0.1  c-0.2,0.1-0.3,0.2-0.4,0.3c-0.5,0.4-0.6,0.9-0.6,1.5c0,0.2,0,0.4,0.1,0.5c0,0.1,0,0.2,0,0.4c0,0.1,0,0.3,0,0.4  c0,0.3-0.1,0.6-0.2,0.9c-0.1,0.2-0.1,0.4-0.2,0.5c-0.2,0.7-0.5,1.3-0.4,2c-0.3,0.3-0.7,0.5-1,0.8c-0.2,0.2-0.5,0.4-0.7,0.6  c-0.2,0.2-0.4,0.4-0.6,0.6c-0.1,0.1-0.2,0.2-0.2,0.3c-0.6,0.9-0.7,2,0.2,3.3L7.7,19.4z M50.2,79c-0.2,0-0.3,0.1-0.4,0.1  c0,0,0,0.1,0,0.1c-0.1,0-0.3,0.1-0.4,0.1c-0.1,0-0.3,0.1-0.4,0.1c0,0,0,0,0,0c-0.1,0-0.3,0-0.4,0c0,0,0,0.1,0,0.1  c-0.1,0-0.1,0-0.2,0c0,0,0,0-0.1,0c-0.1,0-0.1,0-0.2,0c0,0-0.1,0-0.1,0c-0.1,0-0.1,0-0.2-0.1c0,0,0,0-0.1,0c-0.1,0-0.2-0.1-0.2-0.1  c-0.6-0.4-0.9-1-1.3-1.5c-0.2-0.2-0.4-0.4-0.6-0.5c-0.1-0.1-0.3-0.1-0.4-0.2c-0.1-0.2-0.2-0.5-0.2-0.7c0-0.1,0-0.2,0.1-0.3  c0-0.1,0.1-0.2,0.2-0.3c-0.3-0.3-0.4-0.6-0.4-1c0-0.1,0-0.2,0.1-0.4l-1.4-0.7c-0.1,0.1-0.2,0.2-0.4,0.2c0,0-0.1,0-0.1,0  c-0.1,0-0.2,0.1-0.3,0.1c0,0-0.1,0-0.1,0c-0.1,0-0.3,0.1-0.4,0.1c0,0-0.1,0-0.1,0c-0.1,0-0.2,0-0.3,0c0,0,0,0-0.1,0c0,0,0,0-0.1,0  c-0.1,0-0.2,0-0.3,0c0,0-0.1,0-0.1,0c-0.1,0-0.2,0-0.2,0c0.3,0.4,0.5,0.8,0.6,1.2l0.1,0.2c0.4,0.8,0.2,1.7-0.4,2.3l-0.8,0.7  c-0.4,0.4-1,0.6-1.6,0.6c-0.3,0-0.6-0.1-0.8-0.2c0,0-0.1,0.1-0.3,0.2c-0.4,0.3-0.9,0.5-1.4,0.5c-0.1,0-0.3,0-0.4,0  c-0.3,0.2-0.7,0.2-1,0.2c-0.3,0-0.6-0.1-0.9-0.2l-0.3-0.1c0,0-0.1,0-0.1,0c-1.5,0.4-2.6,0.5-3.7,0.5c-1.6,0-3-0.3-4.8-1.1  c-0.1,0-0.3,0.1-0.4,0.1c-0.2,0.1-0.5,0.1-0.7,0.2c-0.4,0.7-1.1,1.1-1.9,1.1c-0.1,0-0.3,0-0.4,0c-0.1,0.2-0.3,0.4-0.5,0.5  c-0.1,0.4-0.4,0.8-0.8,1c0,0.1,0,0.1-0.1,0.2c-0.3,0.6-0.7,1-1.2,1.4c-0.1,0.1-0.1,0.3-0.2,0.4c0,0.4-0.1,0.8-0.4,1.2  c-0.2,0.3-0.4,0.5-0.7,0.6c-0.1,0.4-0.4,0.8-0.8,1.1c-1.3,0.9-3.1,1-4.3,1c-0.3,0-0.6,0-0.9,0c0.2,0.3,0.5,0.5,0.9,0.6l-0.1,0.5  c0.1,0.1,0.2,0.3,0.3,0.4c0.2,0.3,0.5,0.5,0.7,0.7c0.1,0.1,0.3,0.2,0.4,0.4l0.2-0.1l0.3,0.3l0,0.1l0,0.1l-0.6,0l0.2,0.5l-0.2,0  c-0.3,0.6-0.3,1.2-0.1,1.8l1.9,0.6l0.1,0.1l0.1,0.1c0.2,0,0.4,0,0.6,0.1c0.6,0.1,1.2,0.4,1.7,0.8c0-0.2,0.1-0.4,0.1-0.5  c0.1,0,0.2,0.1,0.2,0.1c0,0,0,0,0.1,0c0,0,0.1,0,0.1,0c0.1,0,0.1,0,0.2,0c0,0,0,0,0,0c0,0,0.1,0,0.1,0c0,0,0,0,0.1,0  c0,0,0.1,0,0.1-0.1c0,0,0,0,0.1,0c0,0,0.1,0,0.1-0.1c0,0,0,0,0.1-0.1c0,0,0.1-0.1,0.1-0.1c0,0,0,0,0.1-0.1c0,0,0.1-0.1,0.1-0.1  c0,0,0,0,0-0.1c0,0,0.1-0.1,0.1-0.1c0,0,0,0,0,0c0-0.1,0.1-0.1,0.1-0.2c0,0,0,0,0-0.1c0,0,0-0.1,0.1-0.1c0,0,0-0.1,0-0.1  c0,0,0-0.1,0.1-0.1c0,0,0-0.1,0.1-0.1c0,0,0-0.1,0.1-0.1c0,0,0-0.1,0.1-0.1c0,0,0-0.1,0-0.1c0,0,0-0.1,0.1-0.1c0,0,0,0,0-0.1  c0-0.1,0.1-0.1,0.1-0.2c0,0,0.1-0.1,0.1-0.2c0.3-0.4,0.5-0.8,0.8-1.3c0.2-0.3,0.5-0.7,0.7-1c0.4-0.5,0.8-0.9,1.3-1.2  c0.1-0.1,0.2-0.1,0.4-0.2c0,0,0.1,0,0.1-0.1c0.1,0,0.2-0.1,0.3-0.1c0.1,0,0.1,0,0.2-0.1c0.1,0,0.2-0.1,0.3-0.1c0.1,0,0.1,0,0.2-0.1  c0.1,0,0.2-0.1,0.3-0.1c0.1,0,0.1,0,0.2-0.1c0.1,0,0.2-0.1,0.4-0.1c0,0,0.1,0,0.1,0c0.2,0,0.3-0.1,0.5-0.1c0,0,0,0,0.1,0  c0.1,0,0.2,0,0.3,0c0,0,0,0,0.1,0c0,0,0,0,0.1,0c0.1,0,0.3,0,0.4,0.1l0.1-0.2l0.1-0.1c0.1,0,0.2,0,0.4,0c0.4,0,0.7,0.1,1.1,0.1  c0.6,0.1,1,0.3,1.4,0.7c0.4,0.3,0.6,0.3,1,0.3c0.4,0.1,0.7,0.4,1,0.6c0.2,0.2,0.4,0.5,0.6,0.7c0.1,0.1,0.4,0.5,0.8,0.9  c0.2,0.2,0.3,0.4,0.5,0.6c0.3,0.3,0.5,0.6,0.8,0.9c0.5,0.6,0.9,1,0.9,1c0,0.1-0.4,0.6-0.4,0.6c0.2,0.2,0.5,0.3,0.8,0.3  c0.1,0,0.2,0,0.3,0.1c0.2,0,0.4,0.1,0.6,0.1c0.2,0,0.4,0.1,0.6,0.1c0.1,0,0.1,0,0.2,0c0,0,0,0,0,0c0,0,0.1,0,0.1,0c0,0,0,0,0.1,0  c0,0,0.1,0,0.1,0c0,0,0-0.1,0-0.1c0,0,0-0.1,0.1-0.1c0,0,0,0,0,0c0.1,0,0.1,0.1,0.2,0.1c0,0,0,0.1,0,0.1c0.1,0,0.1,0,0.2,0  c0.1,0,0.3-0.3,0.5-0.6c0.2-0.4,0.6-0.9,0.9-1.3c0-0.1,0.1-0.1,0.1-0.2c-0.1-0.1-0.2-0.2-0.2-0.3l-0.3-0.4c-0.4-0.5-0.5-1.2-0.3-1.8  c0.2-0.6,0.7-1.1,1.3-1.3c0.5-0.1,1-0.2,1.5-0.2c0.2,0,0.4,0,0.6,0l0.1-0.2c0.3-0.5,0.9-0.9,1.6-1c0,0,0,0,0.1-0.1c0,0,0,0,0,0  c0-1,0.8-1.9,1.8-2.1c0.3-0.6,0.8-1.1,1.4-1.5c0-0.2,0.1-0.4,0.1-0.5c0-0.1,0-0.2,0.1-0.2c-0.1-0.8,0.2-1.6,0.9-2.1  c0.2-0.1,0.5-0.5,0.8-0.8c0.1-0.1,0.3-0.4,0.4-0.5C50.5,79.1,50.3,79,50.2,79C50.2,79,50.2,79,50.2,79z M8.3,82.2  c0.1,0.1,0.1,0.2,0.2,0.4c0.1,0.1,0.2,0.3,0.4,0.5C9,83.1,9,83.2,9.1,83.3c0.1,0.1,0.1,0.1,0.2,0.2c0.1,0.1,0.2,0.2,0.3,0.3  c0.5,0.5,0.9,0.9,0.9,1l0.1,0.6c0.2,0,0.4,0,0.7,0c0.1,0,0.3,0,0.5,0c0.1,0,0.2,0,0.2,0c0.1,0,0.3,0,0.4,0c0.1,0,0.2,0,0.2,0  c0.2,0,0.4,0,0.6,0c0,0,0.1,0,0.1,0c0.2,0,0.4,0,0.6,0c0,0,0,0,0,0c0.2,0,0.4-0.1,0.6-0.1c0,0,0.1,0,0.1,0c0.2,0,0.4-0.1,0.5-0.2  c0,0,0.1,0,0.1,0c0.2-0.1,0.3-0.1,0.5-0.2l0,0l0.1-0.5l-0.6-0.6l-0.3-0.3l0.3-0.2c0.1,0.1,0.2,0.2,0.3,0.2c0,0,0.1,0,0.1,0  c0.1,0,0.1,0.1,0.2,0.1c0,0,0.1,0,0.1,0c0.1,0,0.2,0,0.2,0c0,0,0.1,0,0.1,0c0.1,0,0.2,0,0.4,0h0l-0.1-0.4L16.6,83l0.5-0.5L16.9,82  c0.3-0.1,0.6-0.2,0.9-0.4c0.3-0.2,0.5-0.4,0.6-0.7l-0.2-0.4l-0.1-0.2l1-0.3l0.1-0.5l0-0.2l0.6-0.3l0-0.6c0.1-0.1,0.2-0.1,0.3-0.2  c0,0,0.1,0,0.1,0c0.1,0,0.1-0.1,0.2-0.1c0,0,0.1,0,0.1,0c0.1,0,0.2,0,0.2,0c0,0,0.1,0,0.1,0c0.1,0,0.2,0,0.3,0c0,0,0,0,0,0  c0,0,0,0,0.1,0c0.1,0,0.2,0,0.3,0c0,0,0.1,0,0.1,0c0.1,0,0.3,0.1,0.4,0.1l0,0c0.1-0.6,0.2-0.4,0.4-0.6c0.2-0.1,0.3-0.3,0.5-0.4  c0.7-0.3,1.5-0.4,2.2-0.7l0,0l0,0c0,0,0,0,0,0c0.2,0.1,0.4,0.2,0.6,0.3c0.1,0,0.1,0.1,0.2,0.1c0.1,0.1,0.3,0.1,0.4,0.2  c0.1,0,0.1,0.1,0.2,0.1c0.1,0,0.2,0.1,0.4,0.1c0.1,0,0.1,0,0.2,0.1c0.1,0,0.3,0.1,0.4,0.1c0,0,0.1,0,0.1,0c0.2,0,0.3,0.1,0.5,0.1  c0,0,0.1,0,0.1,0c0.1,0,0.2,0,0.4,0.1c0.1,0,0.1,0,0.2,0c0.1,0,0.2,0,0.3,0c0.1,0,0.1,0,0.2,0c0.1,0,0.2,0,0.4,0c0,0,0.1,0,0.1,0  c0.2,0,0.4,0,0.6,0c0,0,0.1,0,0.2,0c0.2,0,0.4,0,0.6-0.1c0,0,0,0,0.1,0c0.2,0,0.5-0.1,0.7-0.1c0.1,0,0.1-0.2,0.2-0.2  c0.2-0.1,0.5-0.3,0.8-0.3c0,0,0,0,0,0c0,0,0.1,0,0.2-0.1c0.2-0.2,0.5-0.3,0.8-0.3l0,0l0,0l0.1,0.6l0.8,0.4l0.9-0.5l0,0l0,0l0.3,0.2  l0.3,0.2c0.1-0.1,0.2-0.2,0.3-0.2c0,0,0.1,0,0.1-0.1c0.1-0.1,0.2-0.1,0.3-0.1c0,0,0.1,0,0.1,0c0.1,0,0.3-0.1,0.4-0.1  c0,0,0.1,0,0.1,0c0.1,0,0.2,0,0.3,0c0,0,0,0,0.1,0c0,0,0,0,0.1,0c0.1,0,0.2,0,0.3,0c0,0,0.1,0,0.1,0c0.1,0,0.3,0.1,0.4,0.1l0.8-0.7  c-0.1-0.2-0.2-0.4-0.3-0.6c-0.1-0.1-0.1-0.2-0.2-0.3c-0.1-0.1-0.1-0.2-0.2-0.2c-0.1-0.1-0.3-0.2-0.4-0.2v0l0,0l0,0c0,0,0-0.1,0-0.1  c0,0,0,0,0,0c0,0,0-0.1,0-0.1c0,0,0,0,0,0c0,0,0-0.1,0-0.1c0,0,0,0,0,0c0,0,0,0-0.1-0.1c0,0,0,0,0,0c0,0-0.1-0.1-0.1-0.1  c0,0,0,0,0,0c0,0-0.1,0-0.2-0.1c0,0,0,0-0.1,0c0,0-0.1,0-0.1,0c0,0-0.1,0-0.1,0c-0.1,0-0.1,0-0.2,0c0,0-0.1,0-0.1,0  c-0.1,0-0.1,0-0.2,0c0,0,0,0-0.1,0c-0.1,0-0.2,0-0.3,0c0,0,0,0-0.1,0c-0.1,0-0.2,0-0.2,0c0,0-0.1,0-0.1,0c-0.1,0-0.1,0-0.2,0  c0,0-0.1,0-0.1,0c-0.1,0-0.1,0-0.2,0c0,0,0,0-0.1,0c0,0,0,0,0,0c-0.1,0-0.2,0-0.3,0c0,0,0,0-0.1,0c-0.1,0-0.2,0-0.3,0  c0,0-0.1,0.1-0.1,0.1c-0.1,0-0.2,0.1-0.2,0.1c0,0-0.1,0-0.1,0c-0.1,0-0.3,0-0.4,0c0,0,0,0,0,0c-0.1,0-0.3-0.1-0.4-0.1  c0,0-0.1-0.1-0.1-0.1c-0.1,0-0.3,0-0.4,0c0,0,0,0,0,0c-0.1,0-0.2,0-0.3,0c0,0,0,0-0.1,0c-0.1,0-0.2,0-0.3,0c0,0-0.1,0-0.1,0  c-0.1,0-0.1,0-0.2,0c-0.1,0-0.2,0-0.3,0c0,0,0,0,0,0c-0.1,0-0.1,0-0.2,0l0,0l0,0c-0.8-1.3-1.5-2.6-2.3-3.9c-0.4-0.6-0.8-1.4-0.8-2.2  c0,0,0,0,0,0c0-0.1-0.1-0.3-0.1-0.4c0-0.2,0.1-0.4,0.2-0.6c0-0.1,0.1-0.1,0.1-0.2c0,0,0.1-0.1,0.1-0.1c0,0,0.1-0.1,0.1-0.1  c0.1-0.1,0.1-0.1,0.1-0.2c0.1-0.2-0.1-0.5-0.3-0.6c-0.1,0-0.1-0.1-0.2-0.1c-0.1,0-0.2,0-0.2-0.1c-0.1,0-0.2,0-0.3,0  c-0.2,0-0.3,0-0.5,0c-0.1,0-0.2,0-0.3-0.1c-0.1,0-0.2-0.1-0.3-0.1c-0.2-0.1-0.3-0.2-0.4-0.3c-0.3-0.2-0.5-0.5-0.8-0.8  c-0.3-0.4-0.5-0.8-0.7-1.2c-0.3-0.6-0.6-1.2-0.9-1.8c-0.2-0.4-0.4-0.8-0.5-1.2c-0.1-0.2-0.2-0.4-0.2-0.6c-0.1-0.4-0.3-0.8-0.4-1.3  c0,0,0,0,0,0c0-0.2-0.1-0.3-0.1-0.4c0,0,0,0,0,0c0-0.2,0-0.4,0-0.5c0.1-0.5,0.4-0.6,0.8-1.4c0.2-0.4,0.4-0.5,0.5-0.5  c0.1,0,0-0.1-0.1-0.2c-0.1-0.1-0.1-0.1-0.2-0.2c0,0-0.1-0.1-0.2-0.1c-0.1-0.1-0.3-0.1-0.5-0.2c-0.2,0-0.4-0.1-0.6-0.1  c-0.2,0-0.3,0-0.4-0.1c-0.1,0-0.3,0-0.3-0.1l-0.5,0.4l0,0l0,0c-0.2,0-0.3-0.1-0.5-0.1c-0.4-0.2-0.9-0.5-1.4-1  c-0.2-0.2-0.4-0.4-0.5-0.5c-0.3-0.3-0.5-0.6-0.7-0.8c-0.2-0.3-0.4-0.5-0.5-0.8c0-0.1-0.1-0.1-0.1-0.2c-0.1,0-0.3,0-0.4,0.1  c0,0-0.1,0-0.1,0c-0.1,0-0.2,0-0.3,0.1c-0.1,0-0.1,0-0.2,0c-0.1,0-0.2,0-0.3,0.1c-0.1,0-0.2,0-0.3,0.1c0,0-0.1,0-0.1,0  c-0.1,0-0.3,0-0.4,0.1c0,0-0.1,0-0.1,0c-0.1,0-0.2,0-0.3,0c0,0-0.1,0-0.1,0c-0.1,0-0.2,0-0.3,0c0,0-0.1,0-0.1,0c-0.1,0-0.2,0-0.3,0  c0,0-0.1,0-0.1,0c0,0,0,0,0,0c-0.2,0-0.3,0-0.5,0c0,0-0.1,0-0.1,0c-0.1,0-0.3,0-0.4-0.1c0,0,0,0-0.1,0c-0.2,0-0.3-0.1-0.5-0.2  c0,0-0.1,0-0.1,0c-0.2-0.1-0.3-0.1-0.5-0.2c0,0,0,0,0,0c-0.1,0-0.2-0.1-0.2-0.2c0,0-0.1,0-0.1-0.1c-0.1,0-0.1-0.1-0.2-0.1  c0,0-0.1,0-0.1-0.1c-0.1-0.1-0.1-0.1-0.2-0.2c0,0,0,0,0,0c-0.1-0.1-0.2-0.2-0.3-0.3C11.1,50,11,50,11,49.9c0,0-0.1-0.1-0.1-0.1  c-0.1-0.1-0.1-0.1-0.2-0.2c0,0-0.1-0.1-0.1-0.1c-0.1-0.1-0.2-0.2-0.3-0.3c0,0,0,0-0.1-0.1c-0.1-0.1-0.2-0.1-0.2-0.2  c0,0-0.1,0-0.1-0.1c-0.1-0.1-0.1-0.1-0.2-0.1c0,0-0.1,0-0.1-0.1c-0.1-0.1-0.2-0.1-0.3-0.2c0,0,0,0,0,0c-0.1,0-0.2-0.1-0.3-0.1  c0,0-0.1,0-0.1,0c-0.1,0-0.2,0-0.2,0c0,0-0.1,0-0.1,0c-0.1,0-0.1,0-0.2,0c0,0-0.1,0-0.1,0c-0.1,0-0.1,0-0.2,0.1c0,0-0.1,0-0.1,0  c-0.1,0-0.1,0.1-0.2,0.1c0,0-0.1,0-0.1,0.1c-0.1,0.1-0.2,0.2-0.3,0.3c-0.3,0.4-0.5,1-0.5,1.7c0,0.2,0,0.3,0,0.5c0,0.2,0,0.4,0,0.6  c0,0.4,0,0.8,0.1,1.2c0,0.2,0,0.4,0.1,0.6c0,0.2,0,0.4,0.1,0.6c0.1,1.2,0.3,2.3,0.3,3c0,0.2,0,0.4,0,0.6c0,0.2,0,0.4,0,0.6  c0.1,1.3,0.5,2.5,1.4,3.4c-0.9,0.6-1.5,1.4-1.8,2.3c-0.1,0.3-0.2,0.5-0.3,0.8c-0.3,1-0.3,2.1-0.3,3.1c0,0.7,0.1,1.4,0,2.1  c0,0.2-0.1,0.5-0.1,0.7c-0.1,0.2-0.2,0.4-0.3,0.6c-0.1,0.2-0.2,0.5-0.3,0.7c-0.1,0.1-0.1,0.3-0.2,0.4c-0.9,2.4,0.5,5,1.8,7.2  C7.5,80.7,7.9,81.5,8.3,82.2z M58.2,78.2C58.1,78.1,58,78,58,78c0,0-0.1,0-0.1,0c-0.1,0-0.3,0.1-0.4,0.2c0,0,0,0.1,0,0.1  c-0.2,0-0.3,0.1-0.5,0.1c0,0-0.1,0-0.1,0c-0.1,0-0.2,0.1-0.4,0.1c0,0-0.1,0-0.1,0c-0.1,0-0.3,0.1-0.4,0.1c0,0-0.1,0-0.1,0  c-0.1,0-0.2,0.1-0.3,0.1c0,0-0.1,0-0.1,0c-0.1,0.1-0.3,0.1-0.4,0.2c0,0,0,0-0.1,0c-0.1,0.1-0.2,0.1-0.3,0.2c0,0-0.1,0-0.1,0.1  c-0.1,0.1-0.2,0.2-0.3,0.3l0,0l0,0c-0.1,0-0.2,0.2-0.3,0.2l0,0c0,0-0.1,0.2-0.1,0.2h-0.1c0,0-0.2-0.2-0.2-0.2l0.2-0.1  c0,0,0.2,0,0.2,0v0c0,0-0.2,0-0.2,0l-0.1,0.1c0,0-0.2,0.2-0.3,0.2h0c0,0-0.4,0-0.4,0v-0.1c0,0,0.1,0,0,0c0,0,0,0,0,0  c0,0-0.1,0-0.1,0.1c0,0,0,0,0,0c0,0,0,0-0.1,0.1c0,0,0,0,0,0c0,0-0.1,0.1-0.1,0.1l0.1,0c0,0,0,0.1,0,0.1c0,0,0,0,0,0  c0,0,0,0.1,0,0.1c0,0,0,0,0,0c0,0-0.3,0.1-0.3,0.1c0,0-0.1,0-0.1,0c0,0-0.1,0.1-0.2,0.1c0,0,0,0,0,0c0,0-0.1,0.1-0.1,0.1  c0,0,0,0,0,0c0,0-0.1,0.1-0.1,0.1c0,0,0,0,0,0c0,0-0.1,0.1-0.1,0.1c0,0,0,0,0,0c0,0-0.1,0.1-0.1,0.1c0,0,0,0,0,0  c0,0-0.1,0.1-0.1,0.1c0,0,0,0,0,0c-0.1,0.1-0.1,0.1-0.2,0.2c0,0,0,0,0,0c0,0-0.1,0.1-0.1,0.1c0,0,0,0,0,0c0,0-0.1,0.1-0.1,0.1  c0,0,0,0,0,0c0,0-0.1,0.1-0.1,0.1c0,0,0,0,0,0c0,0-0.1,0.1-0.1,0.1c0,0,0,0,0,0c0,0-0.1,0.1-0.1,0.1c0,0,0,0,0,0  c0,0-0.1,0.1-0.1,0.1v0c0,0-0.1,0.1-0.1,0.1c0,0,0,0,0,0c0,0,0,0-0.1,0.1l0,0c-0.1,0.1-0.1,0.1-0.2,0.1l0,0c0,0,0,0,0,0  c0,0.2,0,0.4,0,0.6c0,0.1,0,0.2-0.1,0.3c-0.1,0.5-0.3,0.9-0.1,1.5c-0.1,0-0.3,0.1-0.4,0.1c-0.1,0.1-0.2,0.1-0.4,0.2  c-0.1,0.1-0.2,0.1-0.3,0.2c0,0-0.1,0.1-0.1,0.1c-0.1,0-0.1,0.1-0.2,0.1c-0.1,0.1-0.2,0.2-0.2,0.3c-0.1,0.2-0.2,0.4-0.3,0.7  c0,0.1,0,0.3,0,0.4l-0.4,0.1l-0.9,0.1c0,0.2,0,0.3,0,0.5c0,0.1,0,0.1-0.1,0.2c0,0,0,0,0,0c0,0.1-0.1,0.1-0.1,0.2  c-0.2,0.3-0.4,0.5-0.7,0.7l0.2,0.4l-0.7,0l-0.6,0l-0.1,0l-0.2,0.3l0.2,0.3l0,0l0.1,0.2l0,0l0,0c-0.1,0.1-0.2,0.1-0.3,0.2l0,0  c0,0,0,0-0.1,0l0,0c-0.1,0-0.2,0.1-0.2,0.1c0,0,0,0,0,0l0,0c0,0,0,0,0,0l0,0c-0.1,0-0.2,0-0.3,0.1l0,0c0,0,0,0-0.1,0h0  c-0.1,0-0.2,0-0.3,0l0,0c0,0,0,0,0,0c0,0,0,0,0,0c0,0-0.1,0-0.1,0c-0.2,0-0.3,0-0.5,0c-0.2,0-0.6-0.1-0.6-0.1l0-0.1c0,0-0.1,0-0.1,0  c-0.1,0-0.2,0.1-0.4,0.1l0,0c0,0,0,0,0,0l0,0c0,0-0.2,0-0.4,0.1l0.2,0.3l0.1,0.1c0.9,0,1.8,0.2,2.7,0.3c2.7,0.5,5.6,1.4,8.3,2.3  c1.2,0.4,2.4,0.7,3.5,1c0.2-0.1,0.4-0.3,0.6-0.4c0.8-0.6,1.7-1.3,2.6-1.8c0.2-0.1,0.5-0.2,0.7-0.3c0.1-0.1,0.2-0.1,0.4-0.1  c0.4-0.1,0.7-0.2,1.1-0.2c0.2,0,0.3,0,0.5,0s0.3,0,0.4,0c0.3,0,0.5,0,0.8,0c0.2,0,0.5-0.1,0.7-0.1c0.3,0,0.5-0.2,0.9-0.2h0  c0.2,0,0.3,0,0.4-0.1c0.1,0,0.1,0,0.2,0c0.1,0,0.2-0.1,0.3-0.1c0.1,0,0.2-0.1,0.3-0.1c0,0,0.1,0.2,0.1,0.2c0.1,0,0.2,0.1,0.3,0.1  c0,0,0,0,0,0c0.1,0,0.2-0.2,0.3-0.2c0,0,0-0.1,0.1-0.1c0.1,0,0.2,0,0.3,0c0,0,0-0.1,0.1-0.1c0.1,0,0.4,0.1,0.4,0.1v0l0.2-0.3  c-0.2-0.1-0.3-0.1-0.5-0.2c-0.4-0.3-0.8-0.7-1.2-1c-0.4-0.3-1-0.9-1.4-1.1c-0.4,0.3-0.8,0.4-1.3,0.4c-0.4,0-0.8-0.1-1.2-0.3  c-0.7-0.4-1.1-1.2-1.1-2.1c-0.3,0-0.6-0.2-0.9-0.3c-0.1-0.1-0.2-0.1-0.2-0.1c0,0-0.1,0-0.1,0c-0.1,0-0.3,0-0.4,0  c-0.9,0-1.8-0.6-2.1-1.4l-0.3-0.8c-0.3-0.7-0.2-1.4,0.2-1.9c0.1-0.1,0.2-0.2,0.2-0.3c0.5-0.7,0.6-0.8,0.6-1c0-0.5-0.1-1-0.1-1.6  c0-0.1,0-0.2,0-0.3c0,0-0.1-0.1-0.1-0.1C58.3,78.2,58.2,78.2,58.2,78.2z"/>
</svg>
