<svg xmlns="http://www.w3.org/2000/svg" xmlns:xlink="http://www.w3.org/1999/xlink" version="1.1" x="0px" y="0px" viewBox="0 0 100 125" enable-background="new 0 0 100 100" xml:space="preserve"><g><circle cx="43.557" cy="49.691" r="1.841"/><circle cx="45.398" cy="56.133" r="3.106"/><circle cx="51.725" cy="57.283" r="2.071"/><circle cx="64.952" cy="31.747" r="1.15"/><circle cx="49.193" cy="69.477" r="1.956"/><circle cx="51.495" cy="49.806" r="4.257"/><circle cx="32.975" cy="52.452" r="1.61"/><circle cx="35.852" cy="65.681" r="2.416"/><path d="M44.594,37.959c3.686,0,6.672-2.987,6.672-6.672s-2.986-6.672-6.672-6.672c-3.685,0-6.672,2.987-6.672,6.672   C37.922,34.973,40.91,37.959,44.594,37.959z M44.593,36.692c-0.635,0-1.149-0.515-1.149-1.149s0.515-1.15,1.149-1.15   c0.636,0,1.15,0.515,1.15,1.15C45.743,36.179,45.229,36.692,44.593,36.692z M48.158,35.084c-0.381,0-0.689-0.309-0.689-0.69   s0.309-0.69,0.689-0.69s0.689,0.309,0.689,0.69S48.54,35.084,48.158,35.084z M44.708,25.651c2.224,0,4.026,1.803,4.026,4.026   c0,2.223-1.803,4.026-4.026,4.026s-4.026-1.803-4.026-4.026C40.682,27.454,42.484,25.651,44.708,25.651z M41.143,33.588   c0.508,0,0.92,0.412,0.92,0.92c0,0.509-0.412,0.92-0.92,0.92c-0.509,0-0.92-0.412-0.92-0.92C40.223,34,40.634,33.588,41.143,33.588   z"/><path d="M61.271,44.171c4.701,0,8.512-3.811,8.512-8.511s-3.811-8.511-8.512-8.511S52.76,30.96,52.76,35.66   S56.57,44.171,61.271,44.171z M58.166,41.642c-1.398,0-2.531-1.134-2.531-2.533c0-1.396,1.133-2.53,2.531-2.53   c1.396,0,2.529,1.133,2.529,2.53C60.695,40.507,59.562,41.642,58.166,41.642z M63.688,42.56c-1.146,0-2.071-0.927-2.071-2.069   c0-1.144,0.927-2.071,2.071-2.071c1.142,0,2.07,0.928,2.07,2.071C65.759,41.633,64.829,42.56,63.688,42.56z M63.458,28.987   c2.353,0,4.256,1.905,4.256,4.256c0,2.35-1.903,4.256-4.256,4.256c-2.351,0-4.256-1.906-4.256-4.256   C59.202,30.893,61.107,28.987,63.458,28.987z M54.023,33.703c0-1.144,0.928-2.07,2.07-2.07s2.071,0.927,2.071,2.07   s-0.929,2.071-2.071,2.071S54.023,34.846,54.023,33.703z"/><path d="M62.884,51.128c0,3.589,2.909,6.499,6.497,6.499c3.59,0,6.499-2.91,6.499-6.499c0-3.588-2.909-6.498-6.499-6.498   C65.793,44.63,62.884,47.54,62.884,51.128z M66.333,54.522c-1.08,0-1.955-0.875-1.955-1.955c0-1.078,0.875-1.955,1.955-1.955   c1.079,0,1.954,0.877,1.954,1.955C68.287,53.647,67.412,54.522,66.333,54.522z M67.253,49.577c-0.953,0-1.726-0.771-1.726-1.727   c0-0.953,0.771-1.726,1.726-1.726s1.728,0.772,1.728,1.726C68.979,48.806,68.207,49.577,67.253,49.577z M71.738,47.274   c1.08,0,1.955,0.877,1.955,1.957s-0.875,1.955-1.955,1.955s-1.956-0.875-1.956-1.955S70.658,47.274,71.738,47.274z M71.162,52.222   c1.08,0,1.955,0.877,1.955,1.955c0,1.079-0.875,1.954-1.955,1.954c-1.079,0-1.954-0.875-1.954-1.954   C69.208,53.099,70.083,52.222,71.162,52.222z"/><path d="M44.708,40.03c-9.529,0-17.253,7.726-17.253,17.254c0,9.529,7.725,17.253,17.253,17.253   c9.528,0,17.253-7.724,17.253-17.253C61.961,47.756,54.236,40.03,44.708,40.03z M29.87,53.487c0-2.286,1.854-4.141,4.141-4.141   c2.287,0,4.141,1.854,4.141,4.141s-1.854,4.141-4.141,4.141C31.724,57.628,29.87,55.774,29.87,53.487z M37.346,69.562   c-3.033,0-5.492-2.459-5.492-5.492c0-3.032,2.459-5.491,5.492-5.491c3.033,0,5.492,2.459,5.492,5.491   C42.838,67.103,40.379,69.562,37.346,69.562z M48.619,72.467c-2.605,0-4.717-2.11-4.717-4.717c0-2.604,2.111-4.716,4.717-4.716   c2.604,0,4.717,2.111,4.717,4.716S51.225,72.467,48.619,72.467z M48.85,61.854c-5.129,0-9.289-4.158-9.289-9.287   s4.16-9.289,9.289-9.289s9.289,4.16,9.289,9.289S53.979,61.854,48.85,61.854z"/><path d="M50,5C25.147,5,5,25.147,5,50c0,24.854,20.147,45,45,45c24.854,0,45-20.146,45-45C95,25.147,74.854,5,50,5z M50,78.22   c-15.585,0-28.219-12.634-28.219-28.219S34.415,21.782,50,21.782c15.586,0,28.219,12.634,28.219,28.219S65.586,78.22,50,78.22z"/></g></svg>
