<svg xmlns="http://www.w3.org/2000/svg" xmlns:xlink="http://www.w3.org/1999/xlink" version="1.1" x="0px" y="0px" viewBox="0 0 100 125" enable-background="new 0 0 100 100" xml:space="preserve"><path d="M50,5C25.147,5,5,25.147,5,50c0,24.854,20.147,45,45,45c24.854,0,45-20.146,45-45C95,25.147,74.854,5,50,5z M51.105,22  c7.072,0.2,13.487,3.002,18.321,7.489L59.282,39.634c-2.224-1.909-5.06-3.112-8.177-3.297V22L51.105,22z M22.189,50.098  c0.007-15.093,11.886-27.395,26.809-28.084v14.351c-7.005,0.67-12.479,6.555-12.492,13.733c0.003,1.721,0.334,3.359,0.91,4.877  l-12.551,7.094C23.153,58.438,22.191,54.381,22.189,50.098z M50.309,78.216c-10.496-0.004-19.64-5.754-24.47-14.274l12.472-7.049  c2.373,4.176,6.85,6.998,11.998,7.008c3.301-0.006,6.325-1.168,8.699-3.101l10.156,10.155  C64.177,75.466,57.564,78.214,50.309,78.216z M70.669,69.479L60.527,59.338c2.215-2.445,3.576-5.679,3.582-9.24  c-0.006-3.43-1.267-6.559-3.336-8.972L70.919,30.98c4.655,5.017,7.506,11.732,7.511,19.118  C78.425,57.615,75.471,64.436,70.669,69.479z"/></svg>
