<svg xmlns="http://www.w3.org/2000/svg" xmlns:xlink="http://www.w3.org/1999/xlink" version="1.1" x="0px" y="0px" viewBox="0 0 100 125" enable-background="new 0 0 100 100" xml:space="preserve"><path d="M50,5C25.147,5,5,25.147,5,50c0,24.854,20.147,45,45,45c24.854,0,45-20.146,45-45C95,25.147,74.854,5,50,5z M51.581,31.885  h1.056v1.951h6.862c0.233-1.707,1.58-3.054,3.286-3.288v-5.742h-1.95v-1.055h4.954v1.055H63.84v5.742  c1.706,0.234,3.053,1.581,3.286,3.288h7.033v-1.951h1.055v4.956h-1.055v-1.95h-7.033c-0.233,1.706-1.58,3.053-3.286,3.287v6.019  h1.949v1.056h-4.954v-1.056h1.95v-6.019c-1.707-0.233-3.053-1.581-3.287-3.287h-6.862v1.95h-1.055V31.885z M54.564,54.262H53.51  V52.31H39.934c-0.232,1.707-1.58,3.055-3.287,3.289v17.713h1.902v1.055h-4.956v-1.055h1.999V55.599  c-1.706-0.233-3.054-1.582-3.288-3.289h-13.81v1.952h-1.055v-4.954h1.055v1.947h13.81c0.234-1.705,1.582-3.052,3.287-3.285V29.762  h-1.999v-1.055h4.956v1.055h-1.901V47.97c1.705,0.234,3.052,1.581,3.285,3.285H53.51v-1.947h1.055V54.262L54.564,54.262z   M80.992,68.506h-1.055v-1.95h-8.133c-0.234,1.706-1.58,3.055-3.287,3.288v3.128h1.95v1.055h-4.956v-1.055h1.95v-3.129  c-1.706-0.234-3.053-1.581-3.286-3.287h-8.238v1.95h-1.055v-4.955h1.055V65.5h8.238c0.234-1.705,1.581-3.051,3.286-3.284v-2.99  h-1.95V58.17h4.956v1.056h-1.95v2.989c1.705,0.234,3.053,1.58,3.287,3.285h8.133v-1.949h1.055V68.506z"/></svg>
