<svg xmlns="http://www.w3.org/2000/svg" xmlns:xlink="http://www.w3.org/1999/xlink" version="1.1" x="0px" y="0px" viewBox="0 0 100 125" enable-background="new 0 0 100 100" xml:space="preserve"><path d="M50,5C25.147,5,5,25.147,5,50c0,24.854,20.147,45,45,45c24.854,0,45-20.146,45-45C95,25.147,74.854,5,50,5z M66.626,46.908  h4.396v15.241h-4.396V46.908z M60.354,36.636h4.394v25.514h-4.394V36.636z M54.078,25.875h4.395v36.272h-4.395V25.875z   M47.803,18.439h4.396v43.708h-4.396V18.439L47.803,18.439z M41.529,28.418h4.395v33.729h-4.395V28.418z M35.254,42.31h4.395v19.838  h-4.395V42.31z M28.98,49.94h4.394v12.207H28.98V49.94z M22.706,46.888h4.395v15.26h-4.395V46.888z M77.081,71.019l-4.329,4.025  c-0.068,0.062-0.152,0.094-0.238,0.094c-0.096,0-0.188-0.037-0.258-0.111l-0.672-0.721c-0.062-0.066-0.1-0.158-0.096-0.252  c0.005-0.093,0.045-0.181,0.113-0.244l2.332-2.17H22.706v-1.758h51.228l-2.332-2.168c-0.067-0.062-0.107-0.15-0.111-0.245  c-0.004-0.093,0.031-0.184,0.094-0.252l0.672-0.721c0.133-0.142,0.354-0.149,0.497-0.019l4.329,4.024  c0.07,0.067,0.111,0.16,0.111,0.258C77.193,70.858,77.152,70.951,77.081,71.019z M77.293,62.147h-4.395V50.724h4.395V62.147z"/></svg>
