<svg xmlns="http://www.w3.org/2000/svg" xmlns:xlink="http://www.w3.org/1999/xlink" version="1.1" x="0px" y="0px" viewBox="0 0 100 125" enable-background="new 0 0 100 100" xml:space="preserve">
<path d="M89.7,85.7c0,0.2-0.1,0.3-0.2,0.4l-3.2,2.2c-0.1,0.1-0.2,0.1-0.3,0.1c-0.1,0-0.2,0-0.2-0.1c-0.2-0.1-0.3-0.3-0.3-0.4v-1.2  H13c-0.6,0-1-0.4-1-1V15.8h-1.2c-0.2,0-0.4-0.1-0.4-0.3c-0.1-0.2-0.1-0.4,0-0.5l2.2-3.2c0.2-0.3,0.6-0.3,0.8,0l2.2,3.2  c0.1,0.2,0.1,0.4,0,0.5c-0.1,0.2-0.3,0.3-0.4,0.3H14v68.9h71.4v-1.2c0-0.2,0.1-0.4,0.3-0.4c0.2-0.1,0.4-0.1,0.5,0l3.2,2.2  C89.6,85.4,89.7,85.6,89.7,85.7z M15.8,66.1l3,0.6L22,61c0.1-0.2,0.3-0.3,0.5-0.4c0.2,0,0.5,0,0.6,0.2l5.3,4.9l7.4-2L43,53.3  c0.2-0.2,0.4-0.3,0.7-0.3c0.3,0,0.5,0.2,0.6,0.4l4.3,8.9l0.8-0.1l9.4-18.7c0.1-0.2,0.3-0.3,0.5-0.4c0.2-0.1,0.4,0,0.6,0.1l11.7,8.2  l1.7-2c0.2-0.2,0.4-0.3,0.6-0.3c0.2,0,0.5,0.2,0.6,0.4l2.9,5l1.3,0.6l0.3-0.4l2.8-11.1c0.1-0.4,0.5-0.6,0.9-0.5  c0.4,0.1,0.6,0.5,0.5,0.9l-1.8,7.4l0.5-0.7c0.2-0.3,0.7-0.4,1-0.2c0.3,0.2,0.4,0.7,0.2,1l-2.7,3.8l-0.8,3.3  c-0.1,0.3-0.3,0.5-0.6,0.6c-0.3,0-0.6-0.1-0.8-0.4l-1.8-3.1l-2.8-1.2c0,0-0.1,0-0.1-0.1L72,53.4L60.2,67.3c-0.2,0.2-0.4,0.3-0.6,0.3  l-10-1.1c-0.3,0-0.5-0.2-0.6-0.4l-1-2.1l-2.9,0.4L37.6,75c-0.1,0.2-0.3,0.3-0.5,0.3c0,0-0.1,0-0.1,0c-0.2,0-0.4-0.1-0.5-0.2  l-8.4-7.7l-5.2,1.4c-0.1,0-0.1,0-0.2,0c0,0-0.1,0-0.1,0l-3-0.6l-3.3,5.6c-0.2,0.4-0.7,0.5-1,0.3c-0.4-0.2-0.5-0.7-0.3-1l3-5.2  l-2.5-0.5c-0.4-0.1-0.7-0.5-0.6-0.9C15,66.2,15.4,66,15.8,66.1z M73,52.2l1.4,1l0.9,0.4l-1.4-2.4L73,52.2z M49.4,63.7L50,65l9.2,1  l11.5-13.5l-10.9-7.6l-9.2,18.3c-0.1,0.2-0.3,0.4-0.6,0.4L49.4,63.7z M29.8,67l7.1,6.5l7-10.2c0.1-0.2,0.3-0.3,0.5-0.3l2.7-0.4  l-3.6-7.3L37,64.8c-0.1,0.1-0.2,0.2-0.4,0.3L29.8,67z M20.4,66.9l2.3,0.4l4.1-1.1l-3.9-3.6L20.4,66.9z"/>
</svg>
