<svg xmlns:x="http://ns.adobe.com/Extensibility/1.0/" xmlns:i="http://ns.adobe.com/AdobeIllustrator/10.0/" xmlns:graph="http://ns.adobe.com/Graphs/1.0/" xmlns="http://www.w3.org/2000/svg" xmlns:xlink="http://www.w3.org/1999/xlink" xmlns:a="http://ns.adobe.com/AdobeSVGViewerExtensions/3.0/" version="1.1" x="0px" y="0px" viewBox="0 0 100 125" enable-background="new 0 0 100 100" xml:space="preserve"><metadata><sfw xmlns="http://ns.adobe.com/SaveForWeb/1.0/"><slices/><sliceSourceBounds height="16383" width="16383" x="-8141" y="-8142" bottomLeftOrigin="true"/></sfw></metadata><g><g><rect x="10" y="89" width="80" height="2"/><path d="M86,29.87L64.957,53.543L55,43.586l-22.5,22.5l-7.5-7.5l-11,11V86h72V29.87z M33.5,67.914l20.5-20.5V84H33.5V67.914z     M56,47.414l8,8V84h-8V47.414z M16,70.414l9-9l6.5,6.5V84H16V70.414z M84,84H66V55.381l18-20.25V84z"/><polygon points="33.207,53.207 54.667,31.747 54.667,35.131 56.701,33.096 56.701,28.298 51.904,28.299 49.87,30.333     53.253,30.333 31.793,51.793   "/></g></g><text x="0" y="115" fill="#000000" font-size="5px" font-weight="bold" font-family="'Helvetica Neue', Helvetica, Arial-Unicode, Arial, Sans-serif">Created by Ralf Schmitzer</text><text x="0" y="120" fill="#000000" font-size="5px" font-weight="bold" font-family="'Helvetica Neue', Helvetica, Arial-Unicode, Arial, Sans-serif">from the Noun Project</text></svg>