<svg xmlns="http://www.w3.org/2000/svg" xmlns:xlink="http://www.w3.org/1999/xlink" version="1.1" x="0px" y="0px" viewBox="0 0 100 125" style="enable-background:new 0 0 100 100;" xml:space="preserve"><path d="M66.6,16.9c-1.1,0.1-2,0.7-2.5,1.7L48.7,49.7l-14.1-7.1c-0.7-0.4-1.6-0.4-2.3-0.2c-0.8,0.3-1.4,0.8-1.7,1.5L13.7,78.8  c-0.6,1.2-0.3,2.7,0.7,3.6c0.6,0.5,1.3,0.7,2,0.7c0.6,0,1.2-0.2,1.7-0.5l15.7-10.5l15.5,4.2c1.1,0.3,2.2,0,3-0.8l15.1-15.9L82,69  c1.4,0.9,3.3,0.5,4.1-0.9c0.9-1.4,0.5-3.3-0.9-4.1L68.4,53.2c-1.2-0.8-2.8-0.6-3.8,0.5L49.1,70.1L34,66c-0.8-0.2-1.7-0.1-2.5,0.4  l-7.6,5.1l10.7-22.1l14.1,7c0.7,0.4,1.5,0.4,2.3,0.2c0.8-0.3,1.4-0.8,1.7-1.5L67.1,26l13.9,21.9c0.9,1.4,2.7,1.8,4.1,0.9  c1.4-0.9,1.8-2.7,0.9-4.1L69.3,18.3C68.8,17.4,67.7,16.8,66.6,16.9z"/></svg>
