<svg xmlns="http://www.w3.org/2000/svg" xmlns:xlink="http://www.w3.org/1999/xlink" version="1.1" x="0px" y="0px" viewBox="0 0 100 125" enable-background="new 0 0 100 100" xml:space="preserve">
<path d="M87.2,32.2l-1.8,1c2.4,5.2,3.7,10.8,3.8,16.6c0.1,10.5-4,20.4-11.3,27.8C70.6,85,60.7,89.2,50.2,89.3l-0.2,0  c-10,0-19.4-3.7-26.7-10.5L50.4,51l38.4-21.4c0.2-0.1,0.4-0.3,0.5-0.6c0-0.1,0-0.1,0-0.2c0-0.2,0-0.4-0.1-0.6C88,26.1,86.6,24,85,22  c-1.6-2-3.4-3.8-5.3-5.5c-0.4-0.4-1-0.3-1.4,0.1L51,47.3l-0.2-36.5c1.9,0,3.8,0.2,5.6,0.5c2.1,0.4,4.3,0.9,6.3,1.6  c4.2,1.4,8,3.5,11.4,6.2l1.3-1.5c-3.6-2.8-7.7-5.1-12.1-6.6c-2.2-0.7-4.4-1.3-6.7-1.7c-2-0.3-4-0.5-6-0.5l0,0l-1,0  c-11,0.1-21.4,4.4-29.1,12.3c-7.7,7.8-12,18.2-11.9,29.2c0.1,11.1,4.5,21.5,12.4,29.3l0.7,0.7l0,0c7.7,7.1,17.6,11.1,28.1,11.1  l0.3,0c11-0.1,21.4-4.4,29.1-12.3c7.7-7.8,12-18.2,11.9-29.2C91.2,43.7,89.8,37.7,87.2,32.2z M48.9,49.6c-0.1,0.1-0.1,0.1-0.1,0.2  L21.9,77.4c-0.1-0.1-0.2-0.2-0.3-0.3c-0.2-0.2-0.4-0.5-0.7-0.7c-0.2-0.2-0.4-0.5-0.6-0.7c0,0-0.1-0.1-0.1-0.1L49,46.6l0,2.9  L48.9,49.6z M18.4,73.4c-0.2-0.3-0.4-0.5-0.6-0.8c-0.1-0.1-0.2-0.2-0.2-0.4l31.3-31.3l0,3.6L19.2,74.3c0-0.1-0.1-0.1-0.1-0.2  C18.8,73.9,18.6,73.6,18.4,73.4z M15.8,69.4c-0.2-0.3-0.3-0.5-0.5-0.8c-0.1-0.1-0.2-0.3-0.2-0.5l33.8-33.8l0,4.5L16.8,70.9  c-0.2-0.2-0.3-0.5-0.5-0.7C16.2,69.9,16,69.6,15.8,69.4z M13.8,65.1c-0.1-0.3-0.2-0.6-0.4-0.9c0,0,0-0.1,0-0.1l35.5-35.5l0,3.6  L14.4,66.7c-0.1-0.2-0.2-0.5-0.3-0.7C14,65.7,13.9,65.4,13.8,65.1z M12.5,61.6c-0.1-0.3-0.2-0.6-0.3-1c-0.1-0.3-0.2-0.5-0.2-0.8  l36.9-36.9l0,3.6L12.8,62.6c0,0,0-0.1,0-0.1C12.7,62.1,12.6,61.9,12.5,61.6z M13.6,35.3L35,13.7c0.1,0,0.2-0.1,0.3-0.1  c0.3-0.1,0.6-0.2,0.9-0.4c0.3-0.1,0.6-0.2,0.8-0.3c0.3-0.1,0.6-0.2,0.9-0.3c0.3-0.1,0.6-0.2,0.9-0.3c0.3-0.1,0.6-0.2,1-0.3  c0.1,0,0.2-0.1,0.3-0.1L12,40.2C12.4,38.5,12.9,36.9,13.6,35.3z M11.4,42.9l31.5-31.5c0.2,0,0.4-0.1,0.7-0.1c0.3,0,0.6-0.1,0.9-0.1  c0.3,0,0.7-0.1,1-0.1c0.3,0,0.6-0.1,0.9-0.1c0.2,0,0.5,0,0.7-0.1L10.9,47C11,45.6,11.1,44.3,11.4,42.9z M11.3,56.8  c0-0.3-0.1-0.6-0.1-0.8c-0.1-0.4-0.1-0.7-0.1-1.1c0-0.1,0-0.1,0-0.2l37.8-37.8l0,3.9L11.6,58.1c0-0.1,0-0.1,0-0.2  C11.5,57.5,11.4,57.2,11.3,56.8z M10.7,50.2c0-0.3,0-0.6,0-1l38-38l0,3.5L10.9,52.8c0-0.2,0-0.4,0-0.6  C10.8,51.5,10.8,50.9,10.7,50.2z M22.1,22.4c0.5-0.5,0.9-0.9,1.4-1.3c0.2-0.2,0.3-0.3,0.5-0.4c0.3-0.3,0.6-0.6,0.9-0.8  c0.2-0.2,0.4-0.3,0.6-0.5c0.3-0.2,0.6-0.5,0.9-0.7c0.2-0.2,0.5-0.3,0.7-0.5c0.3-0.2,0.6-0.4,0.9-0.6c0.2-0.2,0.5-0.3,0.7-0.5  c0.3-0.2,0.6-0.4,0.9-0.6c0.2-0.2,0.5-0.3,0.8-0.4c0.2-0.1,0.5-0.3,0.7-0.4L15.5,31.3C17.3,28.1,19.4,25.1,22.1,22.4z"/>
</svg>
