<svg xmlns="http://www.w3.org/2000/svg" xmlns:xlink="http://www.w3.org/1999/xlink" version="1.1" x="0px" y="0px" viewBox="0 0 100 125" enable-background="new 0 0 100 100" xml:space="preserve">
<path d="M50,5C25.147,5,5,25.147,5,50c0,24.854,20.147,45,45,45c24.854,0,45-20.146,45-45C95,25.147,74.854,5,50,5z M69.232,34.498  c0.789,0,1.43,0.641,1.43,1.43c0,0.791-0.641,1.43-1.43,1.43s-1.432-0.641-1.432-1.43C67.802,35.138,68.441,34.498,69.232,34.498z   M66.012,28.815c0.789,0,1.43,0.641,1.43,1.43c0,0.79-0.641,1.43-1.43,1.43c-0.791,0-1.432-0.641-1.432-1.43  C64.58,29.455,65.221,28.815,66.012,28.815z M67.338,63.061c0,0.789-0.643,1.431-1.431,1.431c-0.79,0-1.431-0.642-1.431-1.431  s0.641-1.43,1.431-1.43C66.695,61.631,67.338,62.271,67.338,63.061z M65.479,41.79c0.789,0,1.431,0.642,1.431,1.431  c0,0.788-0.642,1.43-1.431,1.43s-1.43-0.642-1.43-1.43C64.049,42.432,64.688,41.79,65.479,41.79z M60.975,33.747  c0.789,0,1.43,0.641,1.43,1.43c0,0.789-0.641,1.431-1.43,1.431c-0.791,0-1.432-0.642-1.432-1.431  C59.543,34.388,60.184,33.747,60.975,33.747z M58.4,40.182c0.789,0,1.43,0.642,1.43,1.43c0,0.791-0.641,1.431-1.43,1.431  c-0.791,0-1.432-0.642-1.432-1.431C56.971,40.822,57.609,40.182,58.4,40.182z M57.223,48.439c0.789,0,1.43,0.641,1.43,1.43  c0,0.791-0.641,1.431-1.43,1.431c-0.791,0-1.432-0.64-1.432-1.431C55.791,49.08,56.432,48.439,57.223,48.439z M53.718,49.654  c0,0.791-0.641,1.431-1.43,1.431c-0.79,0-1.431-0.64-1.431-1.431c0-0.789,0.641-1.43,1.431-1.43  C53.077,48.225,53.718,48.865,53.718,49.654z M51.645,43.186c0.791,0,1.432,0.641,1.432,1.43s-0.641,1.43-1.432,1.43  c-0.789,0-1.431-0.641-1.431-1.43C50.214,43.824,50.854,43.186,51.645,43.186z M51.43,57.02c0.789,0,1.43,0.641,1.43,1.431  c0,0.788-0.641,1.428-1.43,1.428s-1.429-0.64-1.429-1.428C50.001,57.659,50.641,57.02,51.43,57.02z M45.854,51.766  c0.789,0,1.431,0.639,1.431,1.43c0,0.789-0.642,1.431-1.431,1.431s-1.431-0.642-1.431-1.431  C44.423,52.404,45.062,51.766,45.854,51.766z M45.209,57.126c0.789,0,1.432,0.64,1.432,1.431c0,0.789-0.643,1.43-1.432,1.43  c-0.79,0-1.43-0.641-1.43-1.43C43.779,57.766,44.419,57.126,45.209,57.126z M45.674,64.884c0,0.79-0.64,1.431-1.43,1.431  c-0.791,0-1.432-0.641-1.432-1.431s0.643-1.43,1.432-1.43C45.034,63.454,45.674,64.094,45.674,64.884z M41.885,40.075  c0.789,0,1.43,0.641,1.43,1.43s-0.641,1.431-1.43,1.431c-0.791,0-1.431-0.642-1.431-1.431S41.094,40.075,41.885,40.075z   M41.134,48.439c0.791,0,1.431,0.641,1.431,1.43c0,0.791-0.641,1.431-1.431,1.431c-0.788,0-1.43-0.64-1.43-1.431  C39.704,49.08,40.346,48.439,41.134,48.439z M36.643,55.982c0.789,0,1.431,0.641,1.431,1.431s-0.642,1.431-1.431,1.431  c-0.791,0-1.431-0.641-1.431-1.431S35.852,55.982,36.643,55.982z M33.746,62.738c0.791,0,1.431,0.641,1.431,1.431  S34.536,65.6,33.746,65.6c-0.789,0-1.43-0.641-1.43-1.431S32.956,62.738,33.746,62.738z M74.475,72.895H25.374v-45.67  c0-0.583,0.473-1.055,1.055-1.055c0.583,0,1.055,0.472,1.055,1.055v43.56h46.991c0.582,0,1.055,0.473,1.055,1.055  S75.057,72.895,74.475,72.895z"/>
</svg>
