<svg xmlns="http://www.w3.org/2000/svg" xmlns:xlink="http://www.w3.org/1999/xlink" version="1.1" x="0px" y="0px" viewBox="0 0 100 125" enable-background="new 0 0 100 100" xml:space="preserve">
<g>
  <polygon points="75.938,45.502 75.884,45.456 79.227,41.372 79.227,38.818 73.757,45.502  "/>
  <polygon points="70.516,57.426 72.919,54.49 71.186,54.49 70.516,55.309  "/>
  <polygon points="70.516,60.562 75.484,54.49 73.826,54.49 70.516,58.536  "/>
  <polygon points="79.227,45.502 79.227,42.48 76.755,45.502  "/>
  <rect x="40.115" y="35.392" width="12.994" height="10.11"/>
  <polygon points="79.227,64.598 79.227,61.577 76.756,64.598  "/>
  <rect x="31.982" y="54.49" width="15.351" height="10.107"/>
  <polygon points="70.516,63.877 78.198,54.49 76.395,54.49 70.516,61.672  "/>
  <polygon points="72.852,64.598 79.227,56.807 79.227,54.49 79.105,54.49 70.834,64.598  "/>
  <polygon points="75.938,64.598 75.884,64.555 79.227,60.468 79.227,57.916 73.758,64.598  "/>
  <polygon points="72.85,45.502 79.227,37.71 79.227,35.392 79.105,35.392 70.833,45.502  "/>
  <polygon points="63.622,35.392 60.948,38.659 60.948,40.516 65.139,35.392  "/>
  <polygon points="60.948,35.392 60.948,37.55 62.714,35.392  "/>
  <polygon points="66.047,35.392 60.948,41.625 60.948,43.566 67.637,35.392  "/>
  <polygon points="70.02,45.502 69.962,45.457 78.198,35.392 76.395,35.392 68.122,45.502  "/>
  <polygon points="62.042,45.457 70.277,35.392 68.544,35.392 68.545,35.393 60.948,44.677 60.948,45.502 62.1,45.502  "/>
  <polygon points="67.307,45.502 67.25,45.457 75.484,35.392 73.826,35.392 65.555,45.502  "/>
  <path d="M50,5C25.147,5,5,25.147,5,50c0,24.854,20.147,45,45,45c24.854,0,45-20.146,45-45C95,25.147,74.854,5,50,5z M79.93,65.301   h-9.414v0.032H47.398l-16.053,0.015H20.071V53.741h11.274h16.053h23.117v0.046h9.414V65.301z M79.93,46.205H60.885v0.029h-7.277   l-14.129,0.012H20.071V34.653h19.408h14.129h7.277v0.036H79.93V46.205z"/>
  <polygon points="64.738,45.502 64.684,45.457 72.919,35.392 71.186,35.392 62.913,45.502  "/>
</g>
</svg>
