<svg xmlns="http://www.w3.org/2000/svg" xmlns:xlink="http://www.w3.org/1999/xlink" version="1.1" x="0px" y="0px" viewBox="0 0 100 125" enable-background="new 0 0 100 100" xml:space="preserve">
<g>
  <rect x="30.289" y="50.118" width="4.33" height="7.223"/>
  <path d="M50,5C25.147,5,5,25.147,5,50c0,24.854,20.147,45,45,45c24.854,0,45-20.146,45-45C95,25.147,74.854,5,50,5z M22.213,27.044   h55.025v0.352H22.213V27.044z M77.787,72.84H22.761v-0.353h55.026V72.84z M77.787,50.118H65.861v1.855h-7.528v-1.855H42.146v7.223   h4.33v-3.77h7.526v3.77h16.187v-4.088h7.527v4.088h0.069v0.352h-0.069v3.201h-7.527v-3.201H54.003v7.223h23.784v0.352H54.003v5.188   h-7.526v-5.188H22.761v-0.352h23.715v-7.223h-4.33v5.275h-7.527v-5.275H22.761v-0.174v-0.178v-7.223v-0.352v-2.97h7.528v2.97h4.33   v-7.223H22.213v-0.352h12.406v-7.221H22.213v-0.352h55.025v0.352H42.146v7.223h35.092v0.352H42.146v7.223h16.187v-2.97h7.528v2.97   h11.926V50.118z"/>
</g>
</svg>
