<svg xmlns:dc="http://purl.org/dc/elements/1.1/" xmlns:cc="http://creativecommons.org/ns#" xmlns:rdf="http://www.w3.org/1999/02/22-rdf-syntax-ns#" xmlns:svg="http://www.w3.org/2000/svg" xmlns="http://www.w3.org/2000/svg" xmlns:sodipodi="http://sodipodi.sourceforge.net/DTD/sodipodi-0.dtd" xmlns:inkscape="http://www.inkscape.org/namespaces/inkscape" version="1.1" viewBox="0 0 106.254 127.08375000000001" xml:space="preserve" x="0px" y="0px"><g transform="matrix(1.6731525,0,0,1,-58.608578,1.3506864)"><path transform="matrix(1.06254,0,0,1.06254,0,-2.2935)" d="m 36.006093,93.644068 c 17.833922,0.198341 35.981193,0 53.815999,0 l 0,-4.661017 -50.903604,0 0,-85.5932204 -2.912395,0 z" style="" fill="#000000" fill-opacity="1" stroke="none"/></g><rect style="" width="15.748637" height="16.883572" x="15.983123" y="71.318909" fill="#000000" fill-opacity="1" stroke="none"/><rect style="" width="15.748637" height="27.238836" x="79.920303" y="60.963646" fill="#000000" fill-opacity="1" stroke="none"/><rect style="" width="15.748637" height="35.230404" x="37.400684" y="52.972084" fill="#000000" fill-opacity="1" stroke="none"/><rect style="" width="15.748637" height="36.793522" x="58.646988" y="51.40897" fill="#000000" fill-opacity="1" stroke="none"/><rect style="" width="15.748637" height="20.485403" x="15.987811" y="48.659782" fill="#000000" fill-opacity="1" stroke="none"/><rect style="" width="15.748637" height="29.264866" x="37.373676" y="21.551207" fill="#000000" fill-opacity="1" stroke="none"/><rect style="" width="15.748637" height="37.819214" x="58.503712" y="11.244045" fill="#000000" fill-opacity="1" stroke="none"/><rect style="" width="15.748637" height="33.542038" x="79.993004" y="25.226891" fill="#000000" fill-opacity="1" stroke="none"/></svg>
